<svg id="svg" version="1.1" xmlns="http://www.w3.org/2000/svg" xmlns:xlink="http://www.w3.org/1999/xlink" width="400" height="459.25925925925924" viewBox="0, 0, 400,459.25925925925924"><g id="svgg"><path id="path0" d="M165.312 40.058 C 164.761 40.419,163.996 41.417,163.612 42.274 C 161.974 45.932,159.040 46.943,149.962 46.978 C 143.490 47.002,143.049 47.149,142.622 49.423 C 141.964 52.932,139.145 54.400,133.063 54.400 C 128.878 54.400,128.458 54.629,127.856 57.235 C 127.170 60.210,124.849 61.496,119.503 61.862 C 114.652 62.195,114.164 62.398,113.821 64.230 C 113.308 66.962,111.069 68.800,108.254 68.800 C 107.063 68.800,106.165 69.827,105.805 71.600 C 105.252 74.331,104.246 75.382,101.212 76.400 C 100.038 76.794,99.268 77.343,98.969 78.000 C 96.964 82.399,96.840 82.524,92.771 84.200 C 92.091 84.480,91.611 85.197,91.171 86.588 C 90.374 89.106,88.966 90.538,86.644 91.188 C 84.483 91.793,84.195 92.097,83.821 94.172 C 83.435 96.305,81.484 98.214,79.313 98.581 C 77.302 98.921,77.075 99.177,76.258 102.030 C 75.494 104.693,74.707 105.483,71.910 106.393 L 69.800 107.079 69.566 111.640 C 69.241 117.991,68.370 119.470,64.440 120.349 C 61.519 121.001,61.241 121.566,61.696 125.913 C 62.319 131.867,61.124 134.619,57.463 135.665 C 54.847 136.412,54.920 136.189,54.618 144.309 C 54.225 154.894,53.648 156.588,50.025 157.792 C 48.945 158.150,47.858 158.689,47.609 158.990 C 47.274 159.393,47.135 188.856,47.078 271.668 C 47.004 378.031,46.964 383.867,46.293 385.093 C 45.149 387.187,43.637 387.712,38.003 387.970 L 33.006 388.200 32.750 389.400 C 32.367 391.200,32.365 396.525,32.747 397.127 C 32.931 397.418,33.982 398.072,35.083 398.582 C 36.948 399.446,38.800 401.862,38.800 403.430 C 38.800 404.960,33.775 404.910,203.537 405.072 C 347.121 405.209,366.606 405.157,367.405 404.634 C 367.985 404.253,368.484 403.315,368.795 402.023 C 369.347 399.719,370.855 398.176,372.934 397.786 C 374.970 397.404,375.245 396.607,374.747 392.524 C 374.233 388.317,374.629 388.622,368.922 388.043 C 362.897 387.432,361.431 386.663,360.455 383.600 C 360.130 382.579,360.056 352.918,360.182 274.000 C 360.365 160.147,360.389 162.000,358.750 162.000 C 357.943 162.000,354.143 157.633,353.659 156.148 C 353.381 155.297,352.997 151.630,352.805 148.000 C 352.285 138.125,352.178 137.628,350.439 136.936 C 346.223 135.260,345.471 133.834,345.553 127.667 C 345.585 125.320,345.701 123.115,345.811 122.767 C 346.094 121.873,344.929 121.040,342.600 120.470 C 340.231 119.890,338.993 118.656,338.409 116.294 C 337.367 112.076,337.155 111.597,336.085 111.040 C 333.700 109.800,331.512 106.011,330.978 102.200 C 330.574 99.315,330.270 98.931,328.135 98.611 C 325.681 98.243,323.816 96.465,323.419 94.113 C 323.096 92.199,322.798 91.891,320.600 91.204 C 318.314 90.489,316.933 89.030,316.335 86.699 C 315.946 85.181,315.581 84.609,314.812 84.311 C 310.495 82.641,309.728 81.937,309.025 79.000 C 308.615 77.286,307.701 76.437,305.736 75.942 C 303.629 75.412,302.103 73.955,301.765 72.152 C 301.405 70.236,300.167 68.800,298.871 68.798 C 297.043 68.794,294.736 67.976,293.849 67.017 C 293.382 66.512,292.336 65.378,291.524 64.498 C 290.174 63.033,289.755 62.842,286.632 62.262 C 281.353 61.283,280.151 60.375,279.404 56.800 C 278.882 54.303,278.440 54.088,274.265 54.307 C 267.835 54.643,264.725 53.174,264.142 49.525 C 263.802 47.404,263.582 47.341,255.400 47.028 C 245.625 46.654,243.239 45.749,242.566 42.162 C 242.065 39.488,244.366 39.643,203.451 39.516 C 169.547 39.410,166.227 39.457,165.312 40.058 M216.000 56.369 C 221.549 57.280,222.472 57.612,223.501 59.072 C 224.757 60.856,224.774 61.126,224.480 74.400 C 224.083 92.257,225.848 90.809,204.226 91.024 C 181.867 91.246,183.285 92.393,182.926 73.800 C 182.642 59.159,182.936 57.832,186.679 56.838 C 191.785 55.482,208.921 55.208,216.000 56.369 M261.570 64.633 C 264.987 65.415,266.561 66.455,267.613 68.626 C 268.565 70.594,269.699 71.356,272.323 71.792 C 274.640 72.177,275.911 73.372,276.800 76.004 L 277.542 78.200 280.398 78.492 C 286.012 79.066,288.217 80.143,289.592 82.982 C 291.043 85.982,289.942 88.175,285.600 90.935 C 284.582 91.582,284.036 92.338,283.600 93.704 C 282.842 96.079,281.494 97.430,278.986 98.327 C 277.717 98.781,276.839 99.385,276.530 100.017 C 276.265 100.558,275.710 101.708,275.298 102.574 C 272.508 108.432,252.573 108.394,249.956 102.526 C 249.483 101.467,248.966 100.332,248.807 100.004 C 248.648 99.676,247.754 99.278,246.820 99.118 C 244.173 98.666,242.324 97.555,241.214 95.750 C 240.656 94.842,239.884 93.657,239.497 93.115 C 237.937 90.932,237.208 85.576,237.830 80.869 C 238.140 78.521,238.395 75.131,238.397 73.336 C 238.400 70.233,238.457 70.023,239.549 69.104 C 240.181 68.572,240.907 67.747,241.163 67.270 C 242.130 65.462,245.093 64.576,252.600 63.850 C 254.887 63.629,258.589 63.952,261.570 64.633 M161.606 64.747 C 164.631 66.369,165.258 69.487,165.843 85.819 C 166.183 95.329,165.704 96.577,161.219 97.859 C 158.617 98.603,157.777 99.243,157.461 100.720 C 156.487 105.287,150.266 107.429,141.000 106.388 C 134.389 105.645,132.886 104.868,131.814 101.642 C 131.053 99.352,130.388 98.706,128.129 98.062 C 126.303 97.541,124.553 95.786,124.147 94.069 C 123.759 92.425,122.513 91.320,120.721 91.034 C 114.980 90.116,114.334 81.346,119.866 79.418 C 123.079 78.298,123.664 77.874,124.207 76.274 C 125.388 72.788,127.697 71.621,133.438 71.609 C 138.019 71.599,138.409 71.389,139.170 68.529 C 139.955 65.581,141.785 64.560,146.800 64.274 C 154.592 63.828,160.229 64.009,161.606 64.747 M110.669 101.817 C 112.215 102.446,113.124 103.764,113.754 106.289 C 114.198 108.071,114.384 108.274,116.502 109.290 C 118.725 110.357,120.400 112.444,120.400 114.149 C 120.400 114.772,122.595 116.800,123.270 116.800 C 129.390 116.800,130.117 132.245,124.109 134.630 C 121.384 135.712,120.576 136.487,120.051 138.525 C 119.392 141.078,118.238 142.637,116.407 143.445 C 115.159 143.996,114.527 144.623,113.849 145.988 C 112.450 148.804,110.601 149.629,104.772 150.034 C 97.595 150.532,95.227 149.577,93.971 145.675 C 93.187 143.243,93.092 143.200,88.424 143.200 C 82.411 143.200,80.579 142.583,77.485 139.518 L 75.028 137.084 76.481 135.828 C 78.111 134.419,78.919 131.955,79.377 127.000 C 79.766 122.775,81.154 120.427,84.694 118.000 C 85.290 117.592,85.822 116.442,86.360 114.400 C 87.269 110.951,88.606 109.415,91.082 108.971 C 92.903 108.644,93.993 107.778,94.019 106.638 C 94.053 105.145,95.366 103.059,96.800 102.220 C 99.136 100.852,107.685 100.604,110.669 101.817 M310.268 101.834 C 312.323 102.582,312.743 103.073,313.594 105.715 C 314.215 107.643,314.444 107.891,316.629 109.000 C 319.250 110.331,320.609 111.999,320.957 114.309 C 321.081 115.129,321.385 117.275,321.634 119.078 C 322.078 122.299,322.107 122.360,323.343 122.626 C 327.357 123.490,328.574 125.709,328.457 131.955 C 328.278 141.466,327.154 142.806,319.042 143.180 C 315.381 143.349,314.211 143.538,313.970 144.000 C 313.798 144.330,313.265 145.461,312.786 146.513 C 311.435 149.484,309.899 150.089,303.839 150.036 C 291.363 149.926,289.218 148.699,287.588 140.740 C 286.757 136.683,286.179 135.806,283.888 135.119 C 280.511 134.108,279.376 131.799,278.932 125.047 C 278.558 119.358,279.880 116.828,283.550 116.208 C 285.462 115.885,286.208 115.102,286.581 113.028 C 286.954 110.951,288.949 108.955,291.028 108.579 C 293.116 108.203,293.487 107.850,293.811 105.936 C 294.181 103.744,295.798 102.029,298.033 101.460 C 300.491 100.834,308.165 101.068,310.268 101.834 M73.306 155.414 C 74.126 155.971,75.150 157.119,75.582 157.964 C 76.567 159.895,76.860 159.999,81.333 160.003 C 92.104 160.013,97.418 161.637,98.191 165.157 C 98.522 166.665,99.408 167.421,101.494 167.976 C 105.828 169.130,106.428 171.081,105.808 182.000 C 105.266 191.562,104.713 192.900,100.766 194.211 C 99.711 194.562,98.391 195.333,97.832 195.924 C 97.273 196.516,96.044 197.837,95.101 198.860 C 92.913 201.232,91.835 201.406,79.384 201.384 C 67.752 201.364,68.251 201.587,65.056 194.992 C 63.832 192.467,62.650 190.400,62.429 190.400 C 61.289 190.400,61.131 188.716,62.170 187.631 C 63.802 185.927,64.234 182.674,64.000 173.827 C 63.585 158.094,67.078 151.182,73.306 155.414 M339.797 158.523 C 343.170 161.946,343.393 162.943,343.071 173.177 C 342.935 177.480,342.774 183.520,342.712 186.600 C 342.585 192.957,342.432 193.413,339.332 196.660 C 335.540 200.632,332.190 201.600,322.229 201.600 C 313.445 201.600,311.078 200.768,309.582 197.156 C 309.219 196.281,308.709 195.910,307.453 195.607 C 301.041 194.062,301.040 194.060,300.871 182.889 C 300.694 171.139,301.235 169.661,306.244 168.204 C 308.554 167.533,308.705 167.348,309.570 164.120 C 310.361 161.168,311.473 160.712,318.761 160.348 C 326.348 159.970,330.746 159.372,331.594 158.605 C 332.238 158.022,336.302 156.065,336.956 156.023 C 337.152 156.010,338.430 157.135,339.797 158.523 M95.368 212.833 C 97.367 213.397,99.013 215.042,99.575 217.037 C 99.947 218.358,100.320 218.742,101.980 219.517 C 103.556 220.252,104.127 220.806,104.866 222.317 L 105.788 224.200 105.669 240.600 C 105.460 269.641,105.665 269.414,79.981 269.127 C 65.386 268.965,65.811 269.185,64.100 260.878 C 63.390 257.429,62.910 256.001,62.236 255.327 C 60.320 253.411,59.899 250.975,59.587 240.000 C 59.427 234.390,59.166 228.954,59.006 227.921 C 58.662 225.694,59.477 224.223,61.730 223.010 C 63.136 222.253,63.653 221.177,64.809 216.600 C 65.501 213.860,66.801 212.833,70.200 212.340 C 73.144 211.914,93.524 212.313,95.368 212.833 M339.974 213.136 C 343.058 214.626,342.961 214.055,343.328 232.929 C 343.722 253.218,343.349 263.493,342.134 265.835 C 340.470 269.043,340.632 269.017,323.200 268.871 C 299.261 268.670,301.121 270.811,300.894 243.200 C 300.664 215.189,301.223 213.485,311.000 212.448 C 316.943 211.817,338.295 212.324,339.974 213.136 M103.096 287.308 C 105.927 288.855,106.071 289.710,105.887 303.933 C 105.708 317.771,105.512 319.252,103.467 322.292 C 99.947 327.521,97.815 328.126,82.400 328.272 C 66.792 328.421,66.304 328.277,64.747 323.074 C 63.569 319.136,63.046 318.217,61.405 317.203 C 59.297 315.900,59.154 315.356,58.795 307.277 C 58.412 298.686,58.737 297.143,61.543 294.225 C 62.549 293.180,63.201 292.065,63.371 291.102 C 63.700 289.240,65.076 287.594,66.849 286.941 C 69.223 286.068,101.422 286.394,103.096 287.308 M340.372 287.101 C 343.663 288.779,344.762 294.941,343.992 307.400 C 343.074 322.240,342.409 325.214,339.578 327.130 L 338.200 328.064 322.600 327.932 L 307.000 327.800 305.220 326.800 C 301.414 324.661,300.827 321.691,300.831 304.600 C 300.837 284.897,299.057 286.400,322.385 286.401 C 337.413 286.401,339.131 286.468,340.372 287.101 M264.991 316.718 C 268.227 317.827,269.283 320.272,269.874 328.029 C 270.180 332.046,269.430 333.750,266.829 334.954 L 265.000 335.800 204.600 335.800 C 138.114 335.800,141.471 335.926,139.214 333.355 C 137.654 331.578,137.421 330.012,137.991 325.114 C 138.683 319.160,139.472 317.721,142.674 316.580 C 145.273 315.652,262.269 315.784,264.991 316.718 M98.844 345.980 C 102.124 346.489,103.708 347.252,104.958 348.928 C 105.965 350.278,105.971 350.641,105.295 367.000 C 104.446 387.527,104.514 387.466,82.600 387.263 C 65.054 387.100,65.520 387.262,63.970 380.773 C 63.320 378.051,63.006 377.448,61.517 376.059 C 59.817 374.473,59.808 374.449,59.539 370.933 C 58.644 359.199,59.958 349.200,62.395 349.200 C 62.607 349.200,63.047 348.682,63.374 348.050 C 64.499 345.875,66.366 345.463,76.200 345.219 C 85.790 344.980,94.232 345.264,98.844 345.980 M339.200 345.684 C 343.168 346.858,343.511 348.320,343.322 363.200 C 343.084 381.903,342.709 384.442,339.871 386.558 C 338.161 387.833,307.414 388.086,304.616 386.848 C 301.223 385.348,300.659 381.516,300.877 361.466 C 301.032 347.281,301.179 346.907,307.000 345.979 C 313.626 344.923,335.937 344.719,339.200 345.684 M279.652 353.246 C 282.828 353.950,283.967 355.805,284.625 361.345 C 284.838 363.140,285.186 364.011,286.108 365.062 L 287.313 366.434 287.112 373.739 L 286.912 381.044 285.068 383.468 C 283.377 385.693,282.401 386.390,280.200 386.950 C 279.760 387.061,243.850 387.209,200.400 387.276 L 121.400 387.400 119.705 386.495 C 116.459 384.760,116.349 384.209,116.483 370.284 C 116.616 356.506,116.756 355.836,119.826 354.226 C 121.392 353.404,121.725 353.399,183.200 353.200 C 217.190 353.090,252.380 352.963,261.400 352.918 C 271.465 352.868,278.516 352.994,279.652 353.246 " stroke="none" fill="#222b33" fill-rule="evenodd"></path><path id="path1" d="M0.000 229.600 L 0.000 459.200 200.000 459.200 L 400.000 459.200 400.000 229.600 L 400.000 0.000 200.000 0.000 L 0.000 0.000 0.000 229.600 M227.200 34.339 C 245.852 34.659,245.245 34.543,249.315 38.561 C 252.276 41.484,253.749 41.999,259.150 42.002 C 265.862 42.006,268.291 43.134,269.339 46.734 L 269.882 48.600 274.689 49.057 C 281.268 49.682,284.000 51.386,284.000 54.864 C 284.000 56.174,285.334 56.695,289.400 56.973 C 295.081 57.361,297.441 58.634,298.218 61.729 C 298.549 63.050,299.425 63.755,301.446 64.331 C 303.956 65.046,305.112 66.173,305.815 68.593 C 306.527 71.043,306.758 71.276,309.149 71.961 C 311.408 72.608,312.661 73.892,313.227 76.143 C 313.759 78.256,314.400 78.891,316.646 79.531 C 318.986 80.197,320.307 81.386,320.860 83.321 C 321.505 85.576,321.821 85.921,323.710 86.430 C 325.817 86.997,327.419 88.640,328.007 90.837 C 328.621 93.133,328.965 93.507,330.947 94.032 C 333.185 94.624,334.709 96.174,335.428 98.589 C 336.184 101.130,336.557 101.572,338.991 102.800 C 341.775 104.205,342.428 105.537,342.961 110.900 C 343.439 115.706,343.429 115.691,346.246 116.392 C 349.721 117.257,351.108 120.333,350.658 126.177 C 350.370 129.928,350.793 130.939,352.819 131.344 C 356.876 132.155,357.641 134.042,357.995 144.116 C 358.301 152.846,358.168 152.444,361.273 153.972 C 365.869 156.233,365.568 147.456,365.358 273.261 C 365.190 374.097,365.223 381.363,365.851 382.056 C 366.425 382.690,367.137 382.800,370.675 382.800 C 378.568 382.800,379.998 384.479,380.124 393.891 C 380.217 400.850,379.382 402.505,375.342 403.374 C 374.272 403.605,374.020 403.898,373.657 405.338 C 373.227 407.048,372.232 408.242,370.400 409.250 C 369.254 409.880,41.979 410.146,38.200 409.519 C 30.882 408.307,27.505 403.593,27.264 394.255 C 27.003 384.136,28.596 382.203,36.800 382.680 C 40.247 382.880,40.666 382.827,41.313 382.105 C 41.993 381.345,42.030 376.101,42.113 268.754 L 42.201 156.200 43.136 154.600 C 43.650 153.720,45.013 152.320,46.165 151.489 C 48.834 149.563,49.695 146.621,49.540 139.966 C 49.394 133.751,50.572 131.431,54.395 130.401 C 56.124 129.936,56.079 130.070,56.610 123.800 C 57.040 118.713,58.380 116.669,61.623 116.150 C 63.826 115.798,64.013 115.399,64.268 110.534 C 64.608 104.044,65.633 102.249,69.472 101.422 C 71.003 101.093,71.309 100.726,71.966 98.433 C 72.557 96.372,74.214 94.554,75.849 94.173 C 77.828 93.712,78.749 92.875,79.226 91.105 C 79.897 88.612,80.975 87.349,83.105 86.562 C 85.652 85.621,85.824 85.457,86.393 83.424 C 87.129 80.796,88.748 79.329,92.109 78.247 C 92.499 78.121,92.914 77.699,93.030 77.309 C 94.011 74.025,96.545 71.600,98.995 71.600 C 99.987 71.600,101.200 70.457,101.200 69.522 C 101.200 67.170,103.431 64.834,106.259 64.226 C 107.802 63.893,108.624 63.010,108.989 61.290 C 109.668 58.096,111.602 57.026,118.069 56.266 L 122.167 55.785 122.875 53.793 C 123.759 51.300,125.175 50.137,127.996 49.587 C 134.366 48.344,134.514 48.290,136.063 46.618 C 139.195 43.236,139.643 42.884,141.375 42.448 C 142.354 42.202,145.243 42.000,147.797 42.000 C 153.171 42.000,154.307 41.603,155.488 39.314 C 157.625 35.174,159.662 34.751,179.101 34.411 C 187.957 34.257,195.337 33.989,195.501 33.817 C 195.666 33.644,199.220 33.628,203.400 33.782 C 207.580 33.935,218.290 34.186,227.200 34.339 M195.420 61.469 C 186.852 61.673,187.426 61.037,187.733 70.000 C 187.982 77.246,188.615 82.161,189.250 81.769 C 190.296 81.123,191.600 77.410,192.127 73.581 C 192.686 69.514,192.719 69.432,194.397 67.866 L 196.100 66.278 207.376 66.506 L 218.652 66.734 219.336 64.888 C 220.509 61.723,220.204 61.608,210.180 61.450 C 205.571 61.377,198.929 61.386,195.420 61.469 M251.267 69.412 C 247.186 70.050,247.636 69.449,247.189 74.850 C 245.956 89.758,246.657 94.249,250.059 93.230 L 251.600 92.768 251.600 89.164 C 251.600 85.143,252.082 83.766,253.956 82.432 C 255.405 81.400,262.971 81.236,266.047 82.169 C 268.440 82.896,271.200 84.308,271.200 84.807 C 271.200 86.074,277.145 90.709,277.775 89.933 C 278.073 89.566,280.800 85.166,280.800 85.053 C 280.800 84.585,277.390 83.622,275.294 83.497 C 272.212 83.314,271.987 83.098,271.712 80.059 C 271.438 77.036,271.033 76.679,267.200 76.070 C 263.136 75.424,260.107 73.854,259.075 71.857 C 258.267 70.294,256.299 68.766,255.200 68.847 C 254.870 68.872,253.100 69.126,251.267 69.412 M148.797 69.742 C 146.257 70.289,144.763 71.278,143.807 73.045 C 143.055 74.435,140.920 75.773,138.800 76.185 C 135.009 76.920,133.664 77.598,133.374 78.918 C 133.080 80.256,132.207 81.166,131.197 81.187 C 130.865 81.194,129.695 81.683,128.597 82.274 C 127.499 82.865,125.520 83.649,124.200 84.015 C 121.317 84.816,121.111 85.572,123.602 86.207 C 125.928 86.801,127.114 87.425,128.624 88.853 L 129.848 90.010 131.657 88.812 C 132.799 88.055,133.867 86.875,134.557 85.608 C 136.016 82.927,136.159 82.873,144.690 81.804 C 154.041 80.633,154.163 80.548,155.233 74.526 C 155.996 70.228,156.018 70.293,153.600 69.604 C 151.919 69.124,151.622 69.133,148.797 69.742 M99.243 106.549 C 98.992 106.850,98.517 108.007,98.187 109.119 C 97.496 111.447,95.877 113.037,93.802 113.426 C 91.825 113.797,91.587 114.288,91.154 118.875 C 90.346 127.447,92.339 129.206,95.600 122.800 C 96.877 120.291,97.947 119.202,100.131 118.189 C 100.973 117.799,102.143 116.831,102.731 116.040 C 103.319 115.248,104.717 113.697,105.838 112.593 C 108.346 110.124,109.226 107.934,108.177 106.775 C 107.286 105.790,100.025 105.606,99.243 106.549 M299.229 107.054 C 298.773 107.634,298.400 108.363,298.400 108.674 C 298.400 110.552,295.403 113.200,293.278 113.200 C 292.218 113.200,291.406 114.287,290.806 116.511 C 290.210 118.717,288.657 120.240,286.614 120.624 C 284.198 121.077,283.152 125.334,285.153 126.571 C 286.980 127.700,294.661 125.002,295.780 122.838 C 298.537 117.507,309.574 116.558,311.143 121.518 C 311.748 123.429,314.083 126.170,314.884 125.909 C 316.305 125.445,316.345 121.914,314.995 116.103 C 314.862 115.531,314.067 114.842,312.800 114.200 C 310.704 113.138,309.577 111.534,309.004 108.800 C 308.357 105.710,301.280 104.446,299.229 107.054 M84.576 128.581 C 83.957 129.525,84.006 134.160,84.659 136.500 C 85.028 137.823,86.707 137.354,87.526 135.700 C 90.548 129.594,90.452 128.372,86.911 127.845 C 85.416 127.623,85.148 127.707,84.576 128.581 M320.081 128.452 C 317.833 129.101,317.928 130.524,320.410 133.351 C 322.099 135.274,322.195 135.229,322.968 132.150 C 323.898 128.450,323.198 127.554,320.081 128.452 M69.680 165.385 C 69.039 166.790,69.031 181.206,69.669 183.969 C 70.203 186.286,70.631 186.451,72.073 184.900 C 74.229 182.582,74.446 181.923,74.371 177.905 C 74.257 171.777,75.379 170.780,82.034 171.097 C 86.872 171.328,87.774 171.038,88.634 168.981 C 89.891 165.973,88.427 165.373,79.000 165.033 C 75.480 164.906,72.051 164.697,71.380 164.567 C 70.339 164.367,70.089 164.487,69.680 165.385 M318.400 165.643 C 314.582 166.251,314.510 166.287,314.235 167.756 C 313.767 170.246,311.843 171.960,308.800 172.596 C 306.030 173.176,306.000 173.271,306.000 181.600 C 306.000 190.626,306.130 190.931,309.446 189.702 L 311.400 188.978 311.600 184.859 L 311.800 180.739 313.424 179.270 C 314.318 178.461,315.618 177.496,316.313 177.125 C 317.009 176.754,318.202 175.475,318.964 174.284 C 321.314 170.609,327.312 169.472,333.464 171.536 C 335.409 172.188,337.029 172.694,337.064 172.661 C 337.732 172.027,338.267 166.516,337.719 165.911 C 337.000 165.116,322.942 164.921,318.400 165.643 M92.217 173.573 C 91.641 174.505,92.604 174.800,96.224 174.800 C 100.855 174.800,101.174 174.206,96.750 173.820 C 94.962 173.664,93.270 173.448,92.990 173.341 C 92.710 173.233,92.362 173.338,92.217 173.573 M70.815 217.954 C 68.769 218.525,68.484 229.174,70.457 231.377 C 70.656 231.600,72.286 230.229,74.440 228.025 L 78.085 224.295 85.431 223.089 L 92.776 221.883 93.121 220.242 C 93.330 219.246,93.316 218.403,93.084 218.100 C 92.667 217.554,72.720 217.423,70.815 217.954 M313.900 218.050 C 313.210 218.311,312.800 218.762,312.800 219.260 C 312.800 221.136,310.678 222.800,308.287 222.800 C 307.606 222.800,307.163 223.188,306.674 224.214 C 305.672 226.315,305.658 255.233,306.658 258.229 C 307.492 260.727,307.351 260.632,308.743 259.641 C 311.440 257.720,311.642 256.587,311.580 243.737 C 311.528 233.095,311.586 232.045,312.317 230.199 C 313.059 228.328,314.735 225.200,314.995 225.200 C 315.059 225.200,316.527 224.939,318.256 224.620 C 319.985 224.301,323.470 223.842,326.000 223.599 C 328.530 223.356,332.034 222.842,333.787 222.456 L 336.974 221.754 337.295 220.206 C 337.501 219.216,337.463 218.503,337.189 218.229 C 336.606 217.644,315.402 217.482,313.900 218.050 M70.255 260.026 C 69.710 262.752,69.871 263.200,71.400 263.200 C 73.116 263.200,73.158 262.745,71.653 260.476 L 70.509 258.753 70.255 260.026 M69.500 291.883 C 68.641 292.841,68.638 293.169,69.453 298.183 C 70.219 302.901,70.561 303.489,71.234 301.245 C 72.406 297.331,76.503 296.071,88.221 296.019 C 95.135 295.989,100.610 292.983,95.520 292.012 C 90.588 291.072,70.318 290.971,69.500 291.883 M306.662 291.931 C 306.080 292.575,306.000 293.994,306.000 303.744 C 306.000 317.448,306.345 318.818,309.306 316.865 C 311.528 315.400,311.574 315.203,311.587 306.975 L 311.600 299.350 312.773 298.226 C 314.367 296.699,316.108 296.438,324.841 296.417 C 336.179 296.391,337.011 296.255,337.795 294.295 C 339.055 291.146,339.328 291.200,322.200 291.200 C 308.296 291.200,307.281 291.248,306.662 291.931 M238.600 322.514 C 232.880 322.716,209.428 322.908,186.486 322.941 C 152.395 322.989,144.711 323.097,144.444 323.528 C 143.676 324.772,143.061 329.550,143.588 330.185 C 144.373 331.131,263.235 331.122,264.020 330.176 C 265.053 328.931,263.276 322.665,261.800 322.350 C 260.185 322.006,251.212 322.070,238.600 322.514 M69.214 351.108 L 68.339 351.816 69.198 354.008 C 70.326 356.885,70.264 356.845,72.945 356.409 C 74.220 356.202,79.164 356.006,83.931 355.976 L 92.600 355.920 94.507 354.521 C 99.269 351.027,97.261 350.400,81.318 350.400 C 71.170 350.400,70.004 350.468,69.214 351.108 M306.614 351.184 C 305.875 352.001,305.868 378.787,306.606 381.100 C 306.912 382.059,307.735 382.201,310.414 381.757 L 311.827 381.523 311.698 370.262 C 311.560 358.216,311.499 358.629,313.637 356.982 C 314.621 356.225,315.251 356.186,325.883 356.233 L 337.091 356.283 337.777 354.107 C 338.996 350.238,339.677 350.400,322.200 350.400 C 307.931 350.400,307.295 350.432,306.614 351.184 M127.700 358.596 C 126.205 359.246,126.202 359.256,126.998 360.796 C 128.346 363.403,121.877 363.200,203.657 363.200 L 277.936 363.200 278.622 361.134 C 279.279 359.156,279.277 359.046,278.578 358.534 C 277.455 357.714,129.591 357.775,127.700 358.596 " stroke="none" fill="#eef3f8" fill-rule="evenodd"></path><path id="path2" d="M186.600 35.578 C 183.300 35.741,177.622 35.786,173.982 35.678 C 165.024 35.411,160.846 36.503,158.058 39.838 C 155.992 42.310,153.421 43.199,148.313 43.209 C 142.199 43.221,140.813 43.890,137.600 48.382 C 137.142 49.022,136.043 49.404,132.968 49.994 C 127.103 51.120,126.135 51.635,124.300 54.606 C 122.832 56.983,122.422 57.193,118.360 57.647 C 113.265 58.216,112.475 58.695,109.865 62.800 C 109.375 63.570,108.112 64.668,107.058 65.240 C 104.643 66.551,103.745 67.452,102.440 69.871 C 101.597 71.435,100.921 72.053,98.871 73.137 C 96.893 74.183,96.046 74.937,94.983 76.599 C 94.118 77.952,92.787 79.283,91.321 80.262 C 89.654 81.375,88.681 82.405,87.800 83.990 C 87.116 85.221,85.973 86.569,85.191 87.067 C 82.490 88.791,81.560 89.705,80.616 91.568 C 79.531 93.710,79.022 94.202,76.444 95.601 C 75.080 96.340,74.311 97.139,73.492 98.668 C 72.394 100.716,71.070 102.043,68.441 103.728 C 66.257 105.128,65.600 106.815,65.600 111.019 C 65.600 115.137,65.149 115.890,61.594 117.707 C 58.536 119.270,57.652 121.350,57.617 127.070 C 57.598 130.202,57.553 130.272,54.010 132.532 C 51.342 134.233,50.800 135.566,50.800 140.416 C 50.800 147.935,49.642 151.967,47.017 153.590 C 46.234 154.074,45.100 155.309,44.497 156.335 L 43.402 158.200 43.401 269.874 L 43.400 381.547 42.225 382.774 C 41.059 383.991,41.019 384.000,36.816 384.000 C 30.196 384.000,28.400 385.917,28.400 392.983 C 28.400 399.671,33.184 406.608,38.838 408.119 C 42.114 408.995,366.343 409.119,368.421 408.245 C 370.008 407.578,371.653 405.930,372.451 404.207 C 372.755 403.551,373.620 402.651,374.372 402.207 C 378.273 399.905,379.176 397.906,378.812 392.377 C 378.385 385.900,376.365 384.000,369.904 384.000 C 366.769 384.000,366.349 383.906,365.210 382.947 L 363.959 381.894 364.017 273.247 C 364.084 148.156,364.423 158.392,360.121 155.503 C 357.165 153.518,356.931 152.778,356.610 144.409 C 356.271 135.579,355.877 134.545,352.132 132.653 C 349.639 131.394,349.065 130.010,349.377 126.019 C 349.764 121.075,348.716 118.929,345.195 117.454 C 342.908 116.496,342.096 115.306,341.606 112.199 C 340.810 107.151,340.567 106.624,338.011 104.410 C 336.318 102.943,335.298 101.639,334.463 99.875 C 333.174 97.151,332.697 96.648,329.897 95.049 C 328.511 94.258,327.731 93.443,327.023 92.046 C 326.019 90.063,323.583 87.600,322.628 87.600 C 321.992 87.600,319.606 85.000,319.587 84.286 C 319.562 83.386,318.075 81.994,315.730 80.677 C 313.767 79.575,313.179 78.966,312.000 76.812 C 310.895 74.794,310.220 74.056,308.800 73.312 C 306.528 72.122,305.475 71.067,304.293 68.800 C 303.572 67.418,302.831 66.719,301.096 65.788 C 298.397 64.340,297.136 63.292,296.212 61.728 C 294.994 59.665,293.356 58.906,289.000 58.381 C 284.542 57.845,283.991 57.537,282.596 54.800 C 280.839 51.352,279.117 50.400,274.634 50.400 C 270.832 50.400,269.431 49.880,268.346 48.065 C 265.957 44.068,264.242 43.201,258.716 43.198 C 252.427 43.194,248.655 42.029,247.041 39.591 C 244.939 36.414,244.146 36.234,231.000 35.944 C 206.710 35.409,192.392 35.291,186.600 35.578 M242.200 37.901 C 242.860 38.230,244.393 39.562,245.606 40.861 C 248.245 43.687,252.083 44.785,259.357 44.795 L 263.314 44.800 265.157 46.763 C 266.171 47.842,267.561 49.343,268.248 50.099 C 269.483 51.459,269.536 51.475,273.819 51.737 C 278.792 52.041,279.572 52.400,281.136 55.109 C 283.263 58.794,284.206 59.395,288.772 59.977 L 292.836 60.495 294.918 62.864 C 296.203 64.326,297.765 65.597,299.000 66.184 C 301.170 67.217,302.557 68.538,303.995 70.943 C 304.503 71.791,305.862 73.089,307.016 73.827 C 309.115 75.170,310.071 76.178,311.732 78.800 C 312.220 79.570,313.669 80.901,314.951 81.758 C 316.449 82.758,317.772 84.079,318.649 85.450 C 319.517 86.806,320.783 88.076,322.121 88.932 C 323.541 89.841,324.722 91.057,325.748 92.667 C 326.837 94.377,327.878 95.418,329.415 96.338 C 331.794 97.761,332.724 98.903,333.741 101.645 C 334.165 102.792,335.189 104.215,336.444 105.403 C 338.653 107.494,338.915 108.005,340.001 112.321 C 340.942 116.066,341.539 116.933,344.211 118.441 C 347.597 120.352,348.000 121.157,348.000 126.015 C 348.000 130.832,348.481 131.921,351.599 134.161 C 354.670 136.367,354.709 136.485,355.119 144.808 C 355.540 153.342,355.705 153.850,359.091 157.001 C 362.969 160.610,362.598 148.462,362.616 272.400 C 362.624 332.350,362.775 381.815,362.950 382.322 C 363.650 384.351,366.212 385.600,369.673 385.600 C 375.507 385.600,376.919 386.935,377.339 392.849 C 377.645 397.155,377.257 398.101,374.321 400.215 C 373.288 400.959,371.806 402.514,371.027 403.671 C 370.248 404.827,368.977 406.156,368.203 406.623 L 366.795 407.473 203.498 407.310 L 40.200 407.148 38.600 406.333 C 36.740 405.385,31.765 400.211,30.600 398.013 C 29.183 395.339,29.756 388.898,31.578 387.021 L 32.957 385.600 36.698 385.600 C 40.943 385.600,42.186 385.152,43.794 383.043 L 44.829 381.686 44.783 270.476 C 44.748 187.313,44.853 159.031,45.197 158.333 C 45.450 157.820,46.838 156.308,48.282 154.973 C 51.452 152.040,51.885 150.609,52.271 141.800 L 52.516 136.200 54.358 134.502 C 55.371 133.569,56.875 132.192,57.700 131.444 L 59.200 130.082 59.202 125.941 C 59.204 121.099,59.589 120.355,63.182 118.246 C 66.389 116.363,66.765 115.661,67.068 110.999 C 67.325 107.048,67.345 106.984,68.764 105.698 C 72.174 102.605,73.868 100.830,74.877 99.294 C 75.469 98.392,76.965 97.007,78.202 96.216 C 79.438 95.425,80.754 94.225,81.125 93.550 C 82.274 91.458,83.213 90.416,85.403 88.798 C 86.565 87.939,88.209 86.204,89.058 84.940 C 89.906 83.677,91.410 82.079,92.400 81.391 C 93.390 80.702,94.967 79.131,95.904 77.901 C 96.841 76.670,98.476 75.130,99.536 74.477 C 101.451 73.299,102.206 72.502,104.381 69.362 C 105.039 68.411,106.444 67.200,107.729 66.475 C 108.947 65.787,110.272 64.746,110.672 64.160 C 111.072 63.574,112.120 62.320,113.000 61.372 L 114.600 59.650 118.560 59.242 C 122.904 58.795,123.569 58.420,125.848 55.131 C 127.446 52.825,128.899 52.135,133.311 51.586 L 137.221 51.099 139.484 48.522 C 142.606 44.965,143.237 44.702,148.784 44.643 C 154.390 44.583,156.910 43.734,160.099 40.829 C 163.984 37.290,163.292 37.430,178.200 37.170 C 201.785 36.758,240.802 37.204,242.200 37.901 M191.081 58.673 C 185.314 59.022,184.376 61.482,185.176 74.158 C 185.803 84.101,186.030 85.411,187.345 86.727 L 188.407 87.788 203.503 87.660 L 218.600 87.531 219.700 86.491 L 220.800 85.450 220.805 77.625 C 220.810 70.944,220.927 69.429,221.605 67.264 C 222.984 62.866,222.349 61.034,218.800 59.171 C 217.797 58.645,197.565 58.281,191.081 58.673 M219.100 60.714 C 221.381 62.017,221.461 63.526,219.494 68.139 L 218.668 70.079 214.341 69.796 C 211.961 69.641,206.860 69.645,203.007 69.805 L 196.000 70.097 196.006 74.949 C 196.014 81.080,195.715 80.731,201.405 81.251 C 205.704 81.644,208.694 82.210,210.435 82.962 C 210.894 83.160,211.382 82.759,212.195 81.518 C 213.137 80.080,213.177 79.927,212.439 80.581 L 211.558 81.362 212.002 80.194 C 212.664 78.453,213.091 78.089,214.811 77.798 C 215.672 77.653,216.807 77.195,217.334 76.780 L 218.292 76.027 218.542 78.114 C 218.680 79.261,218.795 81.370,218.797 82.800 L 218.800 85.400 208.900 85.251 C 202.630 85.157,197.125 85.292,193.886 85.618 C 190.417 85.967,188.642 86.002,188.366 85.726 C 187.590 84.950,186.764 78.164,186.525 70.599 L 186.284 62.999 187.360 61.721 C 188.725 60.098,188.706 60.100,205.200 60.156 C 214.989 60.189,218.422 60.327,219.100 60.714 M251.629 66.482 C 244.342 67.291,243.692 68.174,243.279 77.824 C 242.636 92.844,242.927 93.912,248.417 96.692 C 250.256 97.623,251.931 98.690,252.139 99.063 C 254.191 102.730,257.792 103.655,266.321 102.709 C 270.802 102.211,271.784 101.592,273.679 98.069 C 274.067 97.349,275.013 96.510,275.879 96.116 C 278.497 94.928,279.573 94.004,281.060 91.666 C 281.852 90.420,283.288 88.553,284.250 87.517 C 286.921 84.643,285.903 83.236,279.719 81.250 C 276.494 80.215,276.144 79.966,274.480 77.530 C 272.846 75.138,271.706 74.258,269.165 73.426 C 267.038 72.731,264.273 71.165,263.790 70.383 C 263.056 69.196,256.332 65.795,255.229 66.054 C 255.103 66.083,253.483 66.276,251.629 66.482 M148.200 66.856 C 144.294 67.284,143.448 67.696,141.922 69.913 C 140.619 71.808,137.873 74.000,136.804 74.000 C 133.889 74.000,129.796 75.672,127.612 77.756 C 126.369 78.942,124.254 80.466,122.912 81.143 C 117.628 83.811,117.622 86.123,122.890 89.137 C 124.148 89.857,125.997 91.405,126.999 92.578 C 128.144 93.919,129.670 95.135,131.110 95.855 C 133.011 96.806,133.592 97.359,134.531 99.111 C 136.309 102.429,136.518 102.499,144.800 102.553 C 153.046 102.607,152.711 102.738,154.967 98.560 C 155.983 96.678,156.587 96.072,158.400 95.119 C 162.353 93.040,162.094 94.112,161.765 81.220 C 161.481 70.095,161.462 69.897,160.524 68.783 C 159.066 67.050,153.857 66.236,148.200 66.856 M257.800 68.539 C 258.900 69.051,260.586 70.226,261.548 71.150 C 263.654 73.173,264.548 73.658,268.254 74.783 C 271.354 75.725,272.349 76.537,273.711 79.237 C 274.484 80.771,274.912 81.117,277.000 81.903 C 279.399 82.805,283.600 84.848,283.600 85.112 C 283.600 85.189,282.865 86.105,281.967 87.148 C 281.069 88.190,279.854 89.928,279.267 91.009 L 278.200 92.975 275.200 93.393 C 271.145 93.959,270.409 94.768,270.402 98.668 C 270.399 100.232,267.095 100.729,258.305 100.486 L 255.209 100.400 254.950 98.777 C 254.533 96.171,253.776 95.554,250.688 95.306 C 248.428 95.125,247.783 94.896,246.577 93.846 L 245.148 92.600 245.132 86.000 C 245.092 69.832,245.363 68.967,250.721 68.152 C 255.136 67.481,255.580 67.505,257.800 68.539 M157.000 69.103 L 159.400 69.837 159.350 72.019 C 159.323 73.218,159.242 75.820,159.170 77.800 C 159.098 79.780,159.078 83.528,159.127 86.130 C 159.232 91.721,158.970 92.142,155.110 92.578 C 152.471 92.877,152.488 92.846,152.310 97.400 L 152.200 100.200 145.820 100.045 C 139.917 99.902,139.387 99.827,138.733 99.045 C 138.204 98.413,138.020 98.351,138.001 98.800 C 137.938 100.237,136.800 97.746,136.800 96.173 C 136.800 93.917,136.163 93.500,132.378 93.281 C 130.630 93.180,129.200 92.966,129.200 92.805 C 129.200 91.861,125.737 88.775,123.453 87.684 C 119.323 85.711,119.495 84.075,124.006 82.430 C 125.482 81.892,127.166 80.843,128.485 79.641 C 131.047 77.308,132.462 76.552,136.163 75.535 C 139.772 74.544,141.683 73.284,143.009 71.021 C 143.815 69.646,144.359 69.171,145.331 68.998 C 146.029 68.873,147.410 68.606,148.400 68.406 C 150.759 67.928,154.023 68.192,157.000 69.103 M260.315 85.128 C 259.444 85.474,259.815 86.078,261.670 87.338 L 263.122 88.323 263.514 86.781 C 264.017 84.796,262.772 84.153,260.315 85.128 M99.250 103.883 C 98.383 104.310,97.287 105.505,96.189 107.218 C 95.139 108.855,93.883 110.242,92.939 110.807 C 90.256 112.412,89.205 113.654,88.556 115.989 C 87.088 121.267,86.750 121.963,84.593 124.155 C 82.158 126.629,81.532 128.303,80.931 133.944 L 80.575 137.288 82.177 138.659 C 84.278 140.457,85.077 140.614,89.279 140.054 C 93.974 139.429,95.215 140.027,97.130 143.839 C 98.475 146.515,99.459 146.926,103.745 146.601 C 107.956 146.283,108.779 145.874,110.375 143.310 C 111.134 142.090,112.269 141.017,113.666 140.196 C 115.325 139.222,116.028 138.485,116.831 136.880 C 118.211 134.116,118.993 133.321,121.492 132.139 C 126.039 129.988,125.853 121.693,121.215 119.750 C 119.319 118.956,118.476 118.120,117.368 115.936 C 116.849 114.911,115.642 113.432,114.686 112.649 C 112.862 111.154,112.514 110.606,111.398 107.470 C 110.002 103.549,103.704 101.689,99.250 103.883 M298.454 104.247 C 297.945 104.603,296.911 105.861,296.156 107.042 C 295.273 108.422,293.968 109.729,292.506 110.696 C 291.255 111.524,289.829 112.831,289.338 113.601 C 287.653 116.241,286.660 117.293,284.737 118.477 C 281.289 120.599,280.939 121.450,281.760 125.732 C 282.589 130.057,283.304 131.174,286.091 132.504 C 288.833 133.812,289.697 134.804,291.049 138.200 C 293.304 143.859,296.762 146.122,303.800 146.545 C 308.011 146.797,308.382 146.621,310.227 143.485 C 312.166 140.189,313.698 139.505,318.458 139.810 L 322.315 140.058 323.710 138.663 C 327.330 135.044,326.736 128.029,322.586 125.374 C 319.768 123.571,319.406 122.938,318.670 118.530 C 317.971 114.339,317.381 113.238,314.927 111.550 C 313.871 110.824,312.692 109.488,311.959 108.188 C 309.683 104.156,308.679 103.600,303.675 103.600 C 300.363 103.600,299.166 103.748,298.454 104.247 M108.769 105.836 C 110.923 107.648,110.578 114.039,108.296 114.612 C 107.272 114.869,107.200 115.028,107.200 117.025 C 107.200 121.018,106.966 121.194,101.000 121.699 L 99.800 121.800 99.800 124.867 C 99.800 128.642,99.491 128.387,104.149 128.452 L 108.034 128.506 108.586 129.828 C 108.890 130.555,109.041 131.523,108.921 131.979 C 108.802 132.435,109.099 133.723,109.580 134.843 C 110.618 137.255,110.744 137.055,107.964 137.399 L 105.728 137.676 104.254 135.456 C 102.630 133.008,102.637 133.015,101.167 132.665 C 100.238 132.443,100.047 132.612,99.263 134.347 C 98.278 136.525,97.196 137.200,94.685 137.200 C 93.763 137.200,91.252 137.596,89.107 138.080 L 85.205 138.960 84.102 138.138 C 81.350 136.086,82.623 127.532,85.998 125.401 C 88.294 123.952,90.000 119.909,90.000 115.917 C 90.000 114.764,91.566 113.038,93.516 112.042 C 95.249 111.158,96.042 110.328,96.997 108.400 C 98.911 104.538,105.517 103.099,108.769 105.836 M308.241 105.464 C 308.798 105.829,309.855 107.321,310.590 108.780 C 311.595 110.775,312.455 111.826,314.063 113.024 L 316.200 114.616 317.229 119.761 C 318.345 125.339,318.534 125.648,321.329 126.486 C 322.247 126.761,323.276 127.478,323.869 128.255 L 324.866 129.562 324.232 132.629 C 323.883 134.315,323.371 136.169,323.093 136.748 L 322.587 137.800 316.594 137.663 C 308.391 137.476,307.609 137.943,307.602 143.031 C 307.599 145.488,303.651 144.542,303.609 142.074 C 303.596 141.300,299.433 137.200,298.661 137.200 C 298.267 137.200,298.000 136.877,298.000 136.400 C 298.000 135.960,297.865 135.599,297.700 135.597 C 297.535 135.596,297.097 135.062,296.726 134.410 C 296.229 133.536,295.571 133.104,294.226 132.765 C 293.210 132.509,292.400 132.070,292.400 131.776 C 292.400 130.906,291.563 130.633,288.204 130.411 C 284.505 130.167,284.515 130.177,283.242 125.123 L 282.506 122.200 283.552 121.075 C 284.127 120.456,285.335 119.624,286.236 119.225 C 287.839 118.516,289.002 117.223,289.875 115.178 C 290.333 114.106,292.041 112.551,294.400 111.057 C 295.170 110.569,296.160 109.564,296.600 108.823 C 298.967 104.835,304.740 103.170,308.241 105.464 M304.700 121.890 C 302.571 122.062,302.456 122.255,303.606 123.717 C 304.314 124.617,307.019 125.920,307.390 125.540 C 307.465 125.463,307.588 124.596,307.663 123.613 C 307.816 121.621,307.843 121.637,304.700 121.890 M122.319 127.504 L 122.438 130.000 120.052 130.000 C 116.606 130.000,115.745 129.542,116.905 128.329 C 117.183 128.038,117.727 127.305,118.114 126.700 C 118.502 126.095,119.164 125.600,119.586 125.600 C 120.008 125.600,120.470 125.410,120.614 125.178 C 121.379 123.940,122.203 125.064,122.319 127.504 M102.831 140.459 C 104.266 143.140,103.317 144.800,100.350 144.800 C 99.569 144.800,99.275 141.854,99.843 139.734 C 100.128 138.672,102.136 139.159,102.831 140.459 M69.307 160.488 C 66.662 163.312,66.408 164.774,66.404 177.231 L 66.400 188.662 68.300 191.826 L 70.200 194.990 73.800 195.671 C 77.591 196.388,86.201 196.645,86.568 196.052 C 86.686 195.861,87.912 195.292,89.292 194.789 C 90.671 194.286,92.880 193.292,94.200 192.582 C 95.520 191.871,97.320 191.067,98.200 190.795 C 100.801 189.992,101.600 189.002,101.600 186.579 C 101.600 185.434,101.958 182.450,102.396 179.948 C 103.589 173.131,103.250 172.160,98.966 170.132 C 97.608 169.489,96.141 168.304,94.816 166.780 C 92.102 163.661,89.425 162.776,81.600 162.412 C 76.204 162.162,75.533 162.001,70.581 159.766 C 70.350 159.662,69.777 159.987,69.307 160.488 M330.200 162.036 C 328.220 162.212,323.974 162.527,320.764 162.735 C 314.325 163.152,313.735 163.361,312.108 165.800 C 310.396 168.365,309.516 169.220,307.564 170.214 C 306.554 170.728,305.159 171.796,304.464 172.588 L 303.200 174.028 303.200 181.467 C 303.200 190.582,304.412 193.194,308.647 193.202 C 310.422 193.206,312.768 193.968,314.468 195.092 C 317.603 197.167,325.756 196.677,331.600 194.062 C 332.590 193.619,334.264 193.040,335.320 192.776 C 338.687 191.933,339.400 190.510,339.401 184.630 C 339.401 181.973,339.749 176.920,340.173 173.400 C 341.044 166.174,340.952 165.413,338.943 163.190 C 337.332 161.406,337.306 161.403,330.200 162.036 M81.200 163.981 C 88.662 164.369,91.909 165.469,93.228 168.056 C 94.212 169.984,96.114 171.418,98.475 172.011 C 101.536 172.780,101.820 173.354,100.957 177.017 C 100.108 180.619,100.129 180.605,94.867 181.016 C 90.633 181.348,90.764 181.138,92.059 185.506 C 93.140 189.154,93.368 189.000,86.867 189.000 L 81.400 189.000 79.611 187.211 L 77.821 185.421 77.494 187.077 C 77.135 188.892,76.692 189.167,72.483 190.189 L 70.367 190.703 69.615 189.230 C 67.872 185.812,67.099 167.665,68.575 164.800 C 69.992 162.050,70.119 161.994,72.919 162.887 C 74.613 163.428,77.241 163.775,81.200 163.981 M338.481 165.002 L 339.596 166.600 338.407 174.000 C 337.693 178.443,337.214 182.946,337.209 185.268 L 337.200 189.136 334.500 189.427 C 333.015 189.586,327.930 189.615,323.200 189.490 C 315.248 189.281,314.532 189.319,313.695 190.000 C 312.840 190.695,309.634 191.600,308.023 191.600 C 307.617 191.600,306.726 191.078,306.042 190.440 L 304.800 189.279 304.800 181.509 C 304.800 172.585,304.635 173.009,308.890 171.021 C 310.917 170.074,312.796 168.305,312.802 167.338 C 312.816 164.935,315.050 164.457,330.000 163.657 C 337.834 163.237,337.176 163.133,338.481 165.002 M68.630 216.197 C 67.809 217.018,67.051 218.297,66.793 219.297 C 66.551 220.234,65.984 222.200,65.532 223.666 C 64.737 226.245,64.731 226.455,65.355 230.115 C 65.798 232.714,66.002 236.390,66.005 241.850 C 66.012 251.886,66.887 262.750,67.801 264.145 C 69.224 266.317,69.929 266.485,75.699 266.022 C 78.593 265.790,83.635 265.600,86.905 265.600 C 94.310 265.600,96.061 264.969,98.794 261.314 C 102.109 256.882,102.018 257.495,101.882 240.359 L 101.762 225.192 99.899 223.296 C 98.875 222.253,97.742 220.680,97.381 219.800 C 95.448 215.083,94.533 214.800,81.233 214.800 L 70.027 214.800 68.630 216.197 M311.800 215.555 C 303.843 217.868,303.219 219.717,303.212 241.000 C 303.205 259.093,303.529 261.731,306.057 264.225 L 307.400 265.550 322.563 265.653 L 337.725 265.755 338.798 264.470 L 339.871 263.185 339.709 247.092 C 339.592 235.469,339.702 229.223,340.104 224.600 L 340.660 218.200 338.983 216.500 L 337.305 214.800 325.753 214.828 C 316.008 214.853,313.824 214.966,311.800 215.555 M337.897 217.291 C 338.971 218.300,339.013 219.328,338.172 224.000 C 337.299 228.853,336.954 248.142,337.591 256.449 C 338.226 264.718,338.878 264.090,330.197 263.571 C 326.459 263.347,319.796 263.285,315.390 263.432 C 306.146 263.741,306.864 264.022,305.600 259.591 C 304.239 254.818,304.374 226.187,305.772 223.025 C 308.397 217.090,312.485 215.888,328.797 216.257 C 336.462 216.431,337.052 216.498,337.897 217.291 M93.914 217.389 C 94.936 218.249,95.116 218.719,95.300 221.008 C 95.525 223.811,96.198 224.985,97.968 225.662 L 98.935 226.032 97.168 227.849 C 93.842 231.267,92.484 232.118,89.264 232.805 L 86.247 233.448 87.563 234.824 C 88.286 235.581,88.995 236.214,89.139 236.231 C 93.000 236.690,93.745 237.911,94.118 244.400 C 94.251 246.710,94.655 250.009,95.016 251.731 C 95.654 254.779,95.649 254.915,94.836 256.806 C 94.376 257.874,94.000 259.557,94.000 260.546 C 94.000 263.414,93.924 263.440,84.735 263.720 C 80.261 263.857,75.178 264.169,73.441 264.414 C 68.541 265.104,68.906 266.336,68.576 248.000 C 68.352 235.486,68.166 231.977,67.584 229.277 C 67.072 226.896,66.974 225.592,67.238 224.677 C 67.441 223.975,67.803 222.276,68.044 220.902 C 68.285 219.528,68.836 217.953,69.270 217.402 L 70.058 216.400 81.398 216.400 L 92.739 216.400 93.914 217.389 M69.148 289.211 C 67.112 290.275,65.602 292.194,65.592 293.731 C 65.587 294.429,65.352 296.102,65.070 297.448 C 64.655 299.428,64.653 300.766,65.059 304.448 C 65.335 306.952,65.570 310.096,65.580 311.436 C 65.591 312.776,65.960 315.280,66.400 317.000 C 66.840 318.720,67.200 320.598,67.200 321.173 C 67.200 321.748,67.741 322.875,68.403 323.677 L 69.606 325.137 81.103 324.920 C 94.145 324.673,95.219 324.425,97.382 321.156 C 97.941 320.311,98.815 319.347,99.324 319.013 C 101.823 317.376,102.076 316.127,102.441 303.651 L 102.776 292.200 101.488 290.916 C 99.358 288.792,72.647 287.384,69.148 289.211 M308.244 288.727 C 303.539 289.113,303.142 290.373,303.283 304.475 C 303.481 324.340,303.358 324.226,325.035 324.667 L 336.671 324.904 337.974 323.740 C 339.562 322.321,340.089 317.667,339.959 306.200 C 339.902 301.106,340.053 298.577,340.563 296.122 C 341.336 292.392,341.025 291.184,338.899 289.671 C 337.841 288.917,314.639 288.204,308.244 288.727 M97.000 290.802 C 101.180 291.557,101.278 291.719,100.592 296.800 C 100.280 299.110,100.020 303.655,100.013 306.900 C 100.005 310.558,99.848 312.800,99.600 312.800 C 99.380 312.800,99.200 313.250,99.200 313.800 C 99.200 314.593,98.998 314.800,98.226 314.800 C 95.688 314.800,93.605 316.906,93.601 319.474 C 93.601 320.175,93.424 321.210,93.210 321.774 L 92.820 322.800 85.137 322.800 C 80.911 322.800,75.837 323.007,73.860 323.261 C 68.842 323.904,68.989 324.151,68.671 314.530 C 68.534 310.388,68.150 305.200,67.819 303.000 C 66.716 295.685,66.926 292.723,68.658 291.203 L 70.116 289.923 82.158 290.110 C 89.240 290.220,95.353 290.505,97.000 290.802 M338.487 291.161 L 339.787 292.322 339.274 294.261 C 338.992 295.328,338.394 296.965,337.945 297.900 L 337.129 299.600 334.464 299.650 C 328.624 299.759,326.039 300.141,327.500 300.679 C 328.215 300.943,328.800 301.352,328.800 301.589 C 328.800 302.279,330.573 302.766,333.857 302.980 C 335.537 303.089,337.021 303.288,337.156 303.422 C 337.532 303.799,337.445 321.889,337.065 322.267 C 336.297 323.031,314.369 322.645,313.793 321.858 C 313.201 321.048,310.998 320.424,308.683 320.410 C 307.218 320.400,307.126 320.315,305.983 317.900 L 304.801 315.400 304.800 303.736 L 304.800 292.071 306.031 291.036 L 307.261 290.000 322.224 290.000 L 337.187 290.000 338.487 291.161 M77.554 299.779 C 77.007 300.327,77.723 303.238,78.344 302.990 C 78.705 302.846,80.748 302.573,82.883 302.383 C 85.406 302.158,87.508 301.715,88.883 301.118 L 91.000 300.200 89.000 299.935 C 86.706 299.631,77.823 299.510,77.554 299.779 M187.456 319.188 L 143.512 319.400 142.412 320.718 C 140.646 322.833,139.743 328.904,140.931 330.679 C 143.065 333.868,137.299 333.600,203.854 333.598 L 263.000 333.596 264.470 332.698 C 267.719 330.712,268.199 326.553,265.738 321.707 C 264.150 318.580,270.578 318.787,187.456 319.188 M263.697 321.552 C 264.087 321.924,264.736 323.778,265.168 325.753 C 266.662 332.594,272.573 331.865,213.379 332.139 C 185.890 332.266,159.039 332.258,153.708 332.121 L 144.017 331.872 142.769 330.831 L 141.521 329.789 142.220 326.274 C 142.604 324.340,143.264 322.318,143.687 321.781 L 144.456 320.803 198.728 320.688 C 260.164 320.557,262.689 320.591,263.697 321.552 M68.074 348.792 C 65.264 350.828,65.026 351.462,65.549 355.535 C 65.797 357.471,66.008 361.292,66.017 364.027 C 66.054 374.632,66.882 381.434,68.317 382.914 L 69.579 384.216 81.289 384.142 C 88.740 384.096,93.419 383.907,94.152 383.624 C 96.359 382.774,97.567 381.609,98.031 379.887 C 98.278 378.966,98.937 377.314,99.494 376.214 C 100.442 374.344,100.518 373.751,100.675 367.008 C 100.798 361.725,101.055 358.892,101.635 356.400 C 102.071 354.530,102.490 352.700,102.567 352.334 C 103.261 349.037,96.812 347.612,81.160 347.605 L 69.720 347.600 68.074 348.792 M309.200 347.971 C 306.590 348.272,305.658 348.740,304.187 350.489 L 303.088 351.795 303.289 366.488 L 303.491 381.181 304.572 382.599 C 306.378 384.966,306.954 385.169,310.800 384.787 C 312.670 384.602,319.457 384.439,325.883 384.425 L 337.566 384.400 338.646 383.047 L 339.725 381.694 339.789 370.147 C 339.839 361.144,340.000 357.867,340.522 355.272 C 341.297 351.421,341.016 350.416,338.663 348.621 L 337.324 347.600 324.362 347.659 C 317.233 347.691,310.410 347.832,309.200 347.971 M96.400 350.079 C 100.668 351.232,100.819 351.338,100.378 352.876 C 99.886 354.592,97.536 356.926,94.933 358.287 L 92.802 359.400 92.816 362.200 C 92.833 365.578,93.480 376.600,93.828 379.442 C 94.156 382.118,94.257 382.088,85.210 382.022 C 81.146 381.992,76.144 382.187,74.096 382.455 C 68.633 383.169,69.000 384.060,69.000 370.085 L 69.000 358.600 67.877 355.200 L 66.755 351.800 68.232 350.510 L 69.710 349.220 75.755 349.085 C 86.238 348.850,93.070 349.179,96.400 350.079 M338.216 350.015 C 339.705 351.414,339.746 352.124,338.574 356.256 L 337.487 360.088 337.690 371.053 C 337.818 377.919,337.749 382.108,337.507 382.258 C 337.294 382.389,332.413 382.469,326.660 382.435 C 319.035 382.390,315.013 382.543,311.818 382.998 L 307.437 383.622 306.218 382.403 L 305.000 381.185 304.864 366.492 L 304.728 351.800 306.066 350.517 C 307.701 348.948,308.887 348.858,325.923 349.006 C 337.091 349.103,337.260 349.117,338.216 350.015 M127.138 355.837 C 123.870 356.539,121.996 357.299,121.105 358.284 C 119.196 360.393,119.175 381.086,121.080 382.875 L 122.064 383.800 199.532 383.911 C 282.470 384.031,278.141 384.103,279.969 382.565 L 281.200 381.529 281.207 374.064 C 281.211 369.959,281.392 364.909,281.610 362.841 C 282.052 358.644,281.468 357.179,278.799 355.800 C 277.093 354.918,131.250 354.954,127.138 355.837 M279.391 357.991 C 280.681 359.337,280.458 361.762,278.698 365.521 C 277.962 367.093,277.906 367.872,278.046 374.521 L 278.200 381.800 258.000 382.000 C 246.890 382.110,226.730 382.110,213.200 382.000 C 199.670 381.890,175.460 381.890,159.400 382.000 C 134.882 382.168,122.660 381.994,122.135 381.468 C 121.671 381.005,121.881 363.488,122.373 361.600 C 123.094 358.832,123.012 358.917,126.054 357.787 L 128.600 356.842 203.425 356.821 L 278.250 356.800 279.391 357.991 M149.600 366.800 C 148.771 367.065,148.908 367.126,150.400 367.154 C 151.390 367.173,152.470 367.013,152.800 366.800 C 153.549 366.316,151.112 366.316,149.600 366.800 M172.629 366.789 C 173.318 367.478,176.625 367.488,176.200 366.800 C 176.064 366.580,175.117 366.400,174.096 366.400 C 172.895 366.400,172.377 366.537,172.629 366.789 M199.009 366.786 C 198.705 367.277,202.473 369.206,203.687 369.181 C 205.592 369.143,213.776 366.953,213.053 366.676 C 211.936 366.247,199.281 366.346,199.009 366.786 M224.600 366.800 C 224.736 367.020,225.186 367.200,225.600 367.200 C 226.014 367.200,226.464 367.020,226.600 366.800 C 226.745 366.566,226.330 366.400,225.600 366.400 C 224.870 366.400,224.455 366.566,224.600 366.800 " stroke="none" fill="#b2adac" fill-rule="evenodd"></path><path id="path3" d="M195.501 33.817 C 195.337 33.989,187.957 34.257,179.101 34.411 C 159.662 34.751,157.625 35.174,155.488 39.314 C 154.307 41.603,153.171 42.000,147.797 42.000 C 145.243 42.000,142.354 42.202,141.375 42.448 C 139.643 42.884,139.195 43.236,136.063 46.618 C 134.514 48.290,134.366 48.344,127.996 49.587 C 125.175 50.137,123.759 51.300,122.875 53.793 L 122.167 55.785 118.069 56.266 C 111.602 57.026,109.668 58.096,108.989 61.290 C 108.624 63.010,107.802 63.893,106.259 64.226 C 103.431 64.834,101.200 67.170,101.200 69.522 C 101.200 70.457,99.987 71.600,98.995 71.600 C 96.545 71.600,94.011 74.025,93.030 77.309 C 92.914 77.699,92.499 78.121,92.109 78.247 C 88.748 79.329,87.129 80.796,86.393 83.424 C 85.824 85.457,85.652 85.621,83.105 86.562 C 80.975 87.349,79.897 88.612,79.226 91.105 C 78.749 92.875,77.828 93.712,75.849 94.173 C 74.214 94.554,72.557 96.372,71.966 98.433 C 71.309 100.726,71.003 101.093,69.472 101.422 C 65.633 102.249,64.608 104.044,64.268 110.534 C 64.013 115.399,63.826 115.798,61.623 116.150 C 58.380 116.669,57.040 118.713,56.610 123.800 C 56.079 130.070,56.124 129.936,54.395 130.401 C 50.572 131.431,49.394 133.751,49.540 139.966 C 49.695 146.621,48.834 149.563,46.165 151.489 C 45.013 152.320,43.650 153.720,43.136 154.600 L 42.201 156.200 42.113 268.754 C 42.030 376.101,41.993 381.345,41.313 382.105 C 40.666 382.827,40.247 382.880,36.800 382.680 C 28.596 382.203,27.003 384.136,27.264 394.255 C 27.505 403.593,30.882 408.307,38.200 409.519 C 41.979 410.146,369.254 409.880,370.400 409.250 C 372.232 408.242,373.227 407.048,373.657 405.338 C 374.020 403.898,374.272 403.605,375.342 403.374 C 379.382 402.505,380.217 400.850,380.124 393.891 C 379.998 384.479,378.568 382.800,370.675 382.800 C 367.137 382.800,366.425 382.690,365.851 382.056 C 365.223 381.363,365.190 374.097,365.358 273.261 C 365.568 147.456,365.869 156.233,361.273 153.972 C 358.168 152.444,358.301 152.846,357.995 144.116 C 357.641 134.042,356.876 132.155,352.819 131.344 C 350.793 130.939,350.370 129.928,350.658 126.177 C 351.108 120.333,349.721 117.257,346.246 116.392 C 343.429 115.691,343.439 115.706,342.961 110.900 C 342.428 105.537,341.775 104.205,338.991 102.800 C 336.557 101.572,336.184 101.130,335.428 98.589 C 334.709 96.174,333.185 94.624,330.947 94.032 C 328.965 93.507,328.621 93.133,328.007 90.837 C 327.419 88.640,325.817 86.997,323.710 86.430 C 321.821 85.921,321.505 85.576,320.860 83.321 C 320.307 81.386,318.986 80.197,316.646 79.531 C 314.400 78.891,313.759 78.256,313.227 76.143 C 312.661 73.892,311.408 72.608,309.149 71.961 C 306.758 71.276,306.527 71.043,305.815 68.593 C 305.112 66.173,303.956 65.046,301.446 64.331 C 299.425 63.755,298.549 63.050,298.218 61.729 C 297.441 58.634,295.081 57.361,289.400 56.973 C 285.334 56.695,284.000 56.174,284.000 54.864 C 284.000 51.386,281.268 49.682,274.689 49.057 L 269.882 48.600 269.339 46.734 C 268.291 43.134,265.862 42.006,259.150 42.002 C 253.749 41.999,252.276 41.484,249.315 38.561 C 245.245 34.543,245.852 34.659,227.200 34.339 C 218.290 34.186,207.580 33.935,203.400 33.782 C 199.220 33.628,195.666 33.644,195.501 33.817 M231.000 35.944 C 244.146 36.234,244.939 36.414,247.041 39.591 C 248.655 42.029,252.427 43.194,258.716 43.198 C 264.242 43.201,265.957 44.068,268.346 48.065 C 269.431 49.880,270.832 50.400,274.634 50.400 C 279.117 50.400,280.839 51.352,282.596 54.800 C 283.991 57.537,284.542 57.845,289.000 58.381 C 293.356 58.906,294.994 59.665,296.212 61.728 C 297.136 63.292,298.397 64.340,301.096 65.788 C 302.831 66.719,303.572 67.418,304.293 68.800 C 305.475 71.067,306.528 72.122,308.800 73.312 C 310.220 74.056,310.895 74.794,312.000 76.812 C 313.179 78.966,313.767 79.575,315.730 80.677 C 318.075 81.994,319.562 83.386,319.587 84.286 C 319.606 85.000,321.992 87.600,322.628 87.600 C 323.583 87.600,326.019 90.063,327.023 92.046 C 327.731 93.443,328.511 94.258,329.897 95.049 C 332.697 96.648,333.174 97.151,334.463 99.875 C 335.298 101.639,336.318 102.943,338.011 104.410 C 340.567 106.624,340.810 107.151,341.606 112.199 C 342.096 115.306,342.908 116.496,345.195 117.454 C 348.716 118.929,349.764 121.075,349.377 126.019 C 349.065 130.010,349.639 131.394,352.132 132.653 C 355.877 134.545,356.271 135.579,356.610 144.409 C 356.931 152.778,357.165 153.518,360.121 155.503 C 364.423 158.392,364.084 148.156,364.017 273.247 L 363.959 381.894 365.210 382.947 C 366.349 383.906,366.769 384.000,369.904 384.000 C 376.365 384.000,378.385 385.900,378.812 392.377 C 379.176 397.906,378.273 399.905,374.372 402.207 C 373.620 402.651,372.755 403.551,372.451 404.207 C 371.653 405.930,370.008 407.578,368.421 408.245 C 366.343 409.119,42.114 408.995,38.838 408.119 C 29.895 405.729,24.698 390.499,31.041 385.270 C 32.558 384.020,32.650 384.000,36.816 384.000 C 41.019 384.000,41.059 383.991,42.225 382.774 L 43.400 381.547 43.401 269.874 L 43.402 158.200 44.497 156.335 C 45.100 155.309,46.234 154.074,47.017 153.590 C 49.642 151.967,50.800 147.935,50.800 140.416 C 50.800 135.566,51.342 134.233,54.010 132.532 C 57.553 130.272,57.598 130.202,57.617 127.070 C 57.652 121.350,58.536 119.270,61.594 117.707 C 65.149 115.890,65.600 115.137,65.600 111.019 C 65.600 106.815,66.257 105.128,68.441 103.728 C 71.070 102.043,72.394 100.716,73.492 98.668 C 74.311 97.139,75.080 96.340,76.444 95.601 C 79.022 94.202,79.531 93.710,80.616 91.568 C 81.560 89.705,82.490 88.791,85.191 87.067 C 85.973 86.569,87.116 85.221,87.800 83.990 C 88.681 82.405,89.654 81.375,91.321 80.262 C 92.787 79.283,94.118 77.952,94.983 76.599 C 96.046 74.937,96.893 74.183,98.871 73.137 C 100.921 72.053,101.597 71.435,102.440 69.871 C 103.745 67.452,104.643 66.551,107.058 65.240 C 108.112 64.668,109.375 63.570,109.865 62.800 C 112.475 58.695,113.265 58.216,118.360 57.647 C 122.422 57.193,122.832 56.983,124.300 54.606 C 126.135 51.635,127.103 51.120,132.968 49.994 C 136.043 49.404,137.142 49.022,137.600 48.382 C 140.813 43.890,142.199 43.221,148.313 43.209 C 153.421 43.199,155.992 42.310,158.058 39.838 C 160.846 36.503,165.024 35.411,173.982 35.678 C 177.622 35.786,183.300 35.741,186.600 35.578 C 192.392 35.291,206.710 35.409,231.000 35.944 M190.318 60.277 C 188.799 60.410,188.227 60.690,187.360 61.721 L 186.284 62.999 186.525 70.599 C 186.764 78.164,187.590 84.950,188.366 85.726 C 188.642 86.002,190.417 85.967,193.886 85.618 C 197.125 85.292,202.630 85.157,208.900 85.251 L 218.800 85.400 218.797 82.800 C 218.795 81.370,218.680 79.261,218.542 78.114 L 218.292 76.027 217.334 76.780 C 216.807 77.195,215.672 77.653,214.811 77.798 C 213.091 78.089,212.664 78.453,212.002 80.194 L 211.558 81.362 212.439 80.581 C 213.177 79.927,213.137 80.080,212.195 81.518 C 211.382 82.759,210.894 83.160,210.435 82.962 C 208.694 82.210,205.704 81.644,201.405 81.251 C 195.715 80.731,196.014 81.080,196.006 74.949 L 196.000 70.097 203.007 69.805 C 206.860 69.645,211.961 69.641,214.341 69.796 L 218.668 70.079 219.494 68.139 C 221.461 63.526,221.381 62.017,219.100 60.714 C 218.216 60.209,195.088 59.858,190.318 60.277 M219.290 62.312 C 219.987 63.009,219.989 63.126,219.336 64.888 L 218.652 66.734 207.376 66.506 L 196.100 66.278 194.397 67.866 C 192.719 69.432,192.686 69.514,192.127 73.581 C 191.600 77.410,190.296 81.123,189.250 81.769 C 187.956 82.569,186.990 63.449,188.266 62.311 C 189.765 60.974,217.953 60.976,219.290 62.312 M250.721 68.152 C 245.363 68.967,245.092 69.832,245.132 86.000 L 245.148 92.600 246.577 93.846 C 247.783 94.896,248.428 95.125,250.688 95.306 C 253.776 95.554,254.533 96.171,254.950 98.777 L 255.209 100.400 258.305 100.486 C 267.095 100.729,270.399 100.232,270.402 98.668 C 270.409 94.768,271.145 93.959,275.200 93.393 L 278.200 92.975 279.267 91.009 C 279.854 89.928,281.069 88.190,281.967 87.148 C 282.865 86.105,283.600 85.189,283.600 85.112 C 283.600 84.848,279.399 82.805,277.000 81.903 C 274.912 81.117,274.484 80.771,273.711 79.237 C 272.349 76.537,271.354 75.725,268.254 74.783 C 264.548 73.658,263.654 73.173,261.548 71.150 C 259.608 69.286,256.337 67.587,254.800 67.646 C 254.250 67.667,252.415 67.895,250.721 68.152 M148.400 68.406 C 147.410 68.606,146.029 68.873,145.331 68.998 C 144.359 69.171,143.815 69.646,143.009 71.021 C 141.683 73.284,139.772 74.544,136.163 75.535 C 132.462 76.552,131.047 77.308,128.485 79.641 C 127.166 80.843,125.482 81.892,124.006 82.430 C 119.495 84.075,119.323 85.711,123.453 87.684 C 125.737 88.775,129.200 91.861,129.200 92.805 C 129.200 92.966,130.630 93.180,132.378 93.281 C 136.163 93.500,136.800 93.917,136.800 96.173 C 136.800 97.746,137.938 100.237,138.001 98.800 C 138.020 98.351,138.204 98.413,138.733 99.045 C 139.387 99.827,139.917 99.902,145.820 100.045 L 152.200 100.200 152.310 97.400 C 152.488 92.846,152.471 92.877,155.110 92.578 C 158.970 92.142,159.232 91.721,159.127 86.130 C 159.078 83.528,159.098 79.780,159.170 77.800 C 159.242 75.820,159.323 73.218,159.350 72.019 L 159.400 69.837 157.000 69.103 C 154.023 68.192,150.759 67.928,148.400 68.406 M257.038 69.558 C 257.719 69.973,258.636 71.008,259.075 71.857 C 260.107 73.854,263.136 75.424,267.200 76.070 C 271.033 76.679,271.438 77.036,271.712 80.059 C 271.987 83.098,272.212 83.314,275.294 83.497 C 277.390 83.622,280.800 84.585,280.800 85.053 C 280.800 85.166,278.073 89.566,277.775 89.933 C 277.145 90.709,271.200 86.074,271.200 84.807 C 271.200 84.308,268.440 82.896,266.047 82.169 C 262.971 81.236,255.405 81.400,253.956 82.432 C 252.082 83.766,251.600 85.143,251.600 89.164 L 251.600 92.768 250.059 93.230 C 246.657 94.249,245.956 89.758,247.189 74.850 C 247.636 69.449,247.186 70.050,251.267 69.412 C 255.777 68.708,255.638 68.704,257.038 69.558 M153.600 69.604 C 156.018 70.293,155.996 70.228,155.233 74.526 C 154.163 80.548,154.041 80.633,144.690 81.804 C 136.159 82.873,136.016 82.927,134.557 85.608 C 133.867 86.875,132.799 88.055,131.657 88.812 L 129.848 90.010 128.624 88.853 C 127.114 87.425,125.928 86.801,123.602 86.207 C 121.111 85.572,121.317 84.816,124.200 84.015 C 125.520 83.649,127.499 82.865,128.597 82.274 C 129.695 81.683,130.865 81.194,131.197 81.187 C 132.207 81.166,133.080 80.256,133.374 78.918 C 133.664 77.598,135.009 76.920,138.800 76.185 C 140.920 75.773,143.055 74.435,143.807 73.045 C 144.763 71.278,146.257 70.289,148.797 69.742 C 151.622 69.133,151.919 69.124,153.600 69.604 M263.686 85.019 C 263.807 85.140,263.729 85.933,263.514 86.781 L 263.122 88.323 261.670 87.338 C 259.815 86.078,259.444 85.474,260.315 85.128 C 261.159 84.793,263.388 84.721,263.686 85.019 M98.721 105.900 C 98.154 106.505,97.379 107.630,96.997 108.400 C 96.042 110.328,95.249 111.158,93.516 112.042 C 91.566 113.038,90.000 114.764,90.000 115.917 C 90.000 119.909,88.294 123.952,85.998 125.401 C 82.623 127.532,81.350 136.086,84.102 138.138 L 85.205 138.960 89.107 138.080 C 91.252 137.596,93.763 137.200,94.685 137.200 C 97.196 137.200,98.278 136.525,99.263 134.347 C 100.047 132.612,100.238 132.443,101.167 132.665 C 102.637 133.015,102.630 133.008,104.254 135.456 L 105.728 137.676 107.964 137.399 C 110.744 137.055,110.618 137.255,109.580 134.843 C 109.099 133.723,108.802 132.435,108.921 131.979 C 109.041 131.523,108.890 130.555,108.586 129.828 L 108.034 128.506 104.149 128.452 C 99.491 128.387,99.800 128.642,99.800 124.867 L 99.800 121.800 101.000 121.699 C 106.966 121.194,107.200 121.018,107.200 117.025 C 107.200 115.028,107.272 114.869,108.296 114.612 C 110.578 114.039,110.923 107.648,108.769 105.836 C 106.851 104.222,100.251 104.264,98.721 105.900 M298.660 106.138 C 297.967 106.873,297.040 108.082,296.600 108.823 C 296.160 109.564,295.170 110.569,294.400 111.057 C 292.041 112.551,290.333 114.106,289.875 115.178 C 289.002 117.223,287.839 118.516,286.236 119.225 C 285.335 119.624,284.127 120.456,283.552 121.075 L 282.506 122.200 283.242 125.123 C 284.515 130.177,284.505 130.167,288.204 130.411 C 291.563 130.633,292.400 130.906,292.400 131.776 C 292.400 132.070,293.210 132.509,294.226 132.765 C 295.571 133.104,296.229 133.536,296.726 134.410 C 297.097 135.062,297.535 135.596,297.700 135.597 C 297.865 135.599,298.000 135.960,298.000 136.400 C 298.000 136.877,298.267 137.200,298.661 137.200 C 299.433 137.200,303.596 141.300,303.609 142.074 C 303.651 144.542,307.599 145.488,307.602 143.031 C 307.609 137.943,308.391 137.476,316.594 137.663 L 322.587 137.800 323.093 136.748 C 323.371 136.169,323.883 134.315,324.232 132.629 L 324.866 129.562 323.869 128.255 C 323.276 127.478,322.247 126.761,321.329 126.486 C 318.534 125.648,318.345 125.339,317.229 119.761 L 316.200 114.616 314.063 113.024 C 312.455 111.826,311.595 110.775,310.590 108.780 C 308.784 105.193,308.091 104.800,303.574 104.800 C 299.948 104.800,299.910 104.810,298.660 106.138 M108.177 106.775 C 109.226 107.934,108.346 110.124,105.838 112.593 C 104.717 113.697,103.319 115.248,102.731 116.040 C 102.143 116.831,100.973 117.799,100.131 118.189 C 97.947 119.202,96.877 120.291,95.600 122.800 C 92.339 129.206,90.346 127.447,91.154 118.875 C 91.587 114.288,91.825 113.797,93.802 113.426 C 95.877 113.037,97.496 111.447,98.187 109.119 C 99.100 106.044,99.177 106.000,103.587 106.000 C 106.926 106.000,107.575 106.110,108.177 106.775 M308.093 106.700 C 308.433 107.085,308.843 108.030,309.004 108.800 C 309.577 111.534,310.704 113.138,312.800 114.200 C 314.067 114.842,314.862 115.531,314.995 116.103 C 316.345 121.914,316.305 125.445,314.884 125.909 C 314.083 126.170,311.748 123.429,311.143 121.518 C 309.574 116.558,298.537 117.507,295.780 122.838 C 294.661 125.002,286.980 127.700,285.153 126.571 C 283.152 125.334,284.198 121.077,286.614 120.624 C 288.657 120.240,290.210 118.717,290.806 116.511 C 291.406 114.287,292.218 113.200,293.278 113.200 C 295.403 113.200,298.400 110.552,298.400 108.674 C 298.400 106.191,306.237 104.595,308.093 106.700 M307.663 123.613 C 307.588 124.596,307.465 125.463,307.390 125.540 C 307.019 125.920,304.314 124.617,303.606 123.717 C 302.456 122.255,302.571 122.062,304.700 121.890 C 307.843 121.637,307.816 121.621,307.663 123.613 M120.614 125.178 C 120.470 125.410,120.008 125.600,119.586 125.600 C 119.164 125.600,118.502 126.095,118.114 126.700 C 117.727 127.305,117.183 128.038,116.905 128.329 C 115.745 129.542,116.606 130.000,120.052 130.000 L 122.438 130.000 122.319 127.504 C 122.203 125.064,121.379 123.940,120.614 125.178 M89.359 128.818 C 90.598 129.997,87.556 137.200,85.819 137.200 C 84.678 137.200,84.554 136.856,84.196 132.684 C 83.785 127.888,86.357 125.962,89.359 128.818 M322.955 128.750 C 323.591 129.453,323.592 129.667,322.968 132.150 C 322.195 135.229,322.099 135.274,320.410 133.351 C 317.928 130.524,317.833 129.101,320.081 128.452 C 321.996 127.900,322.205 127.922,322.955 128.750 M99.843 139.734 C 99.275 141.854,99.569 144.800,100.350 144.800 C 102.830 144.800,103.423 144.399,103.332 142.785 C 103.175 139.964,100.426 137.561,99.843 139.734 M69.867 162.748 C 67.997 164.885,67.850 165.796,67.945 174.600 C 68.043 183.585,68.419 186.886,69.615 189.230 L 70.367 190.703 72.483 190.189 C 76.692 189.167,77.135 188.892,77.494 187.077 L 77.821 185.421 79.611 187.211 L 81.400 189.000 86.867 189.000 C 93.368 189.000,93.140 189.154,92.059 185.506 C 90.764 181.138,90.633 181.348,94.867 181.016 C 100.129 180.605,100.108 180.619,100.957 177.017 C 101.820 173.354,101.536 172.780,98.475 172.011 C 96.114 171.418,94.212 169.984,93.228 168.056 C 91.909 165.469,88.662 164.369,81.200 163.981 C 77.241 163.775,74.613 163.428,72.919 162.887 C 70.630 162.157,70.393 162.146,69.867 162.748 M330.000 163.657 C 315.050 164.457,312.816 164.935,312.802 167.338 C 312.796 168.305,310.917 170.074,308.890 171.021 C 304.635 173.009,304.800 172.585,304.800 181.509 L 304.800 189.279 306.042 190.440 C 306.726 191.078,307.617 191.600,308.023 191.600 C 309.634 191.600,312.840 190.695,313.695 190.000 C 314.532 189.319,315.248 189.281,323.200 189.490 C 327.930 189.615,333.015 189.586,334.500 189.427 L 337.200 189.136 337.209 185.268 C 337.214 182.946,337.693 178.443,338.407 174.000 L 339.596 166.600 338.481 165.002 C 337.176 163.133,337.834 163.237,330.000 163.657 M79.000 165.033 C 88.427 165.373,89.891 165.973,88.634 168.981 C 87.774 171.038,86.872 171.328,82.034 171.097 C 75.379 170.780,74.257 171.777,74.371 177.905 C 74.446 181.923,74.229 182.582,72.073 184.900 C 69.812 187.332,69.200 185.051,69.200 174.188 C 69.200 165.248,69.439 164.194,71.380 164.567 C 72.051 164.697,75.480 164.906,79.000 165.033 M337.719 165.911 C 338.267 166.516,337.732 172.027,337.064 172.661 C 337.029 172.694,335.409 172.188,333.464 171.536 C 327.312 169.472,321.314 170.609,318.964 174.284 C 318.202 175.475,317.009 176.754,316.313 177.125 C 315.618 177.496,314.318 178.461,313.424 179.270 L 311.800 180.739 311.600 184.859 L 311.400 188.978 309.446 189.702 C 306.130 190.931,306.000 190.626,306.000 181.600 C 306.000 173.271,306.030 173.176,308.800 172.596 C 311.843 171.960,313.767 170.246,314.235 167.756 C 314.412 166.810,314.752 166.331,315.345 166.193 C 320.505 164.988,336.700 164.784,337.719 165.911 M96.750 173.820 C 98.537 173.976,100.000 174.260,100.000 174.452 C 100.000 174.940,92.503 174.890,92.200 174.400 C 91.848 173.830,92.386 173.109,92.990 173.341 C 93.270 173.448,94.962 173.664,96.750 173.820 M317.000 216.348 C 311.139 216.797,307.594 218.905,305.772 223.025 C 304.374 226.187,304.239 254.818,305.600 259.591 C 306.864 264.022,306.146 263.741,315.390 263.432 C 319.796 263.285,326.459 263.347,330.197 263.571 C 338.878 264.090,338.226 264.718,337.591 256.449 C 336.954 248.142,337.299 228.853,338.172 224.000 C 339.535 216.427,339.625 216.502,328.797 216.257 C 324.289 216.155,318.980 216.196,317.000 216.348 M69.270 217.402 C 68.836 217.953,68.285 219.528,68.044 220.902 C 67.803 222.276,67.441 223.975,67.238 224.677 C 66.974 225.592,67.072 226.896,67.584 229.277 C 68.166 231.977,68.352 235.486,68.576 248.000 C 68.906 266.336,68.541 265.104,73.441 264.414 C 75.178 264.169,80.261 263.857,84.735 263.720 C 93.924 263.440,94.000 263.414,94.000 260.546 C 94.000 259.557,94.376 257.874,94.836 256.806 C 95.649 254.915,95.654 254.779,95.016 251.731 C 94.655 250.009,94.251 246.710,94.118 244.400 C 93.745 237.911,93.000 236.690,89.139 236.231 C 88.995 236.214,88.286 235.581,87.563 234.824 L 86.247 233.448 89.264 232.805 C 92.484 232.118,93.842 231.267,97.168 227.849 L 98.935 226.032 97.968 225.662 C 96.198 224.985,95.525 223.811,95.300 221.008 C 95.116 218.719,94.936 218.249,93.914 217.389 L 92.739 216.400 81.398 216.400 L 70.058 216.400 69.270 217.402 M93.084 218.100 C 93.316 218.403,93.330 219.246,93.121 220.242 L 92.776 221.883 85.431 223.089 L 78.085 224.295 74.440 228.025 C 72.286 230.229,70.656 231.600,70.457 231.377 C 68.484 229.174,68.769 218.525,70.815 217.954 C 72.720 217.423,92.667 217.554,93.084 218.100 M337.189 218.229 C 337.463 218.503,337.501 219.216,337.295 220.206 L 336.974 221.754 333.787 222.456 C 332.034 222.842,328.530 223.356,326.000 223.599 C 323.470 223.842,319.985 224.301,318.256 224.620 C 316.527 224.939,315.059 225.200,314.995 225.200 C 314.735 225.200,313.059 228.328,312.317 230.199 C 311.586 232.045,311.528 233.095,311.580 243.737 C 311.642 256.587,311.440 257.720,308.743 259.641 C 307.351 260.632,307.492 260.727,306.658 258.229 C 305.658 255.233,305.672 226.315,306.674 224.214 C 307.163 223.188,307.606 222.800,308.287 222.800 C 310.678 222.800,312.800 221.136,312.800 219.260 C 312.800 218.762,313.210 218.311,313.900 218.050 C 315.402 217.482,336.606 217.644,337.189 218.229 M72.798 262.700 C 72.799 263.005,72.254 263.200,71.400 263.200 C 69.871 263.200,69.710 262.752,70.255 260.026 L 70.509 258.753 71.653 260.476 C 72.282 261.424,72.797 262.425,72.798 262.700 M68.658 291.203 C 66.926 292.723,66.716 295.685,67.819 303.000 C 68.150 305.200,68.534 310.388,68.671 314.530 C 68.989 324.151,68.842 323.904,73.860 323.261 C 75.837 323.007,80.911 322.800,85.137 322.800 L 92.820 322.800 93.210 321.774 C 93.424 321.210,93.601 320.175,93.601 319.474 C 93.605 316.906,95.688 314.800,98.226 314.800 C 98.998 314.800,99.200 314.593,99.200 313.800 C 99.200 313.250,99.380 312.800,99.600 312.800 C 99.848 312.800,100.005 310.558,100.013 306.900 C 100.020 303.655,100.280 299.110,100.592 296.800 C 101.442 290.497,101.191 290.406,82.158 290.110 L 70.116 289.923 68.658 291.203 M306.031 291.036 L 304.800 292.071 304.800 303.736 L 304.801 315.400 305.983 317.900 C 307.126 320.315,307.218 320.400,308.683 320.410 C 310.998 320.424,313.201 321.048,313.793 321.858 C 314.369 322.645,336.297 323.031,337.065 322.267 C 337.445 321.889,337.532 303.799,337.156 303.422 C 337.021 303.288,335.537 303.089,333.857 302.980 C 330.573 302.766,328.800 302.279,328.800 301.589 C 328.800 301.352,328.215 300.943,327.500 300.679 C 326.039 300.141,328.624 299.759,334.464 299.650 L 337.129 299.600 337.945 297.900 C 338.394 296.965,338.992 295.328,339.274 294.261 L 339.787 292.322 338.487 291.161 L 337.187 290.000 322.224 290.000 L 307.261 290.000 306.031 291.036 M95.520 292.012 C 100.610 292.983,95.135 295.989,88.221 296.019 C 76.503 296.071,72.406 297.331,71.234 301.245 C 70.561 303.489,70.219 302.901,69.453 298.183 C 68.210 290.531,67.297 291.048,81.600 291.317 C 87.870 291.435,94.134 291.748,95.520 292.012 M337.755 291.950 C 338.383 292.644,338.386 292.818,337.795 294.295 C 337.011 296.255,336.179 296.391,324.841 296.417 C 316.108 296.438,314.367 296.699,312.773 298.226 L 311.600 299.350 311.587 306.975 C 311.574 315.203,311.528 315.400,309.306 316.865 C 306.345 318.818,306.000 317.448,306.000 303.744 C 306.000 293.994,306.080 292.575,306.662 291.931 C 307.698 290.786,336.717 290.804,337.755 291.950 M89.000 299.935 L 91.000 300.200 88.883 301.118 C 87.508 301.715,85.406 302.158,82.883 302.383 C 80.748 302.573,78.705 302.846,78.344 302.990 C 77.723 303.238,77.007 300.327,77.554 299.779 C 77.823 299.510,86.706 299.631,89.000 299.935 M198.728 320.688 L 144.456 320.803 143.687 321.781 C 143.264 322.318,142.604 324.340,142.220 326.274 L 141.521 329.789 142.769 330.831 L 144.017 331.872 153.708 332.121 C 159.039 332.258,185.890 332.266,213.379 332.139 C 272.573 331.865,266.662 332.594,265.168 325.753 C 264.736 323.778,264.087 321.924,263.697 321.552 C 262.689 320.591,260.164 320.557,198.728 320.688 M261.800 322.350 C 263.276 322.665,265.053 328.931,264.020 330.176 C 263.235 331.122,144.373 331.131,143.588 330.185 C 143.061 329.550,143.676 324.772,144.444 323.528 C 144.711 323.097,152.395 322.989,186.486 322.941 C 209.428 322.908,232.880 322.716,238.600 322.514 C 251.212 322.070,260.185 322.006,261.800 322.350 M75.755 349.085 L 69.710 349.220 68.232 350.510 L 66.755 351.800 67.877 355.200 L 69.000 358.600 69.000 370.085 C 69.000 384.060,68.633 383.169,74.096 382.455 C 76.144 382.187,81.146 381.992,85.210 382.022 C 94.257 382.088,94.156 382.118,93.828 379.442 C 93.480 376.600,92.833 365.578,92.816 362.200 L 92.802 359.400 94.933 358.287 C 98.817 356.257,101.807 352.159,100.072 351.244 C 96.677 349.453,89.149 348.785,75.755 349.085 M311.001 349.071 C 307.596 349.225,307.331 349.303,306.066 350.517 L 304.728 351.800 304.864 366.492 L 305.000 381.185 306.218 382.403 L 307.437 383.622 311.818 382.998 C 315.013 382.543,319.035 382.390,326.660 382.435 C 332.413 382.469,337.294 382.389,337.507 382.258 C 337.749 382.108,337.818 377.919,337.690 371.053 L 337.487 360.088 338.574 356.256 C 340.575 349.201,340.456 349.132,325.923 349.006 C 319.695 348.952,312.981 348.981,311.001 349.071 M94.861 351.049 C 97.605 351.819,97.557 352.283,94.507 354.521 L 92.600 355.920 83.931 355.976 C 79.164 356.006,74.220 356.202,72.945 356.409 C 70.264 356.845,70.326 356.885,69.198 354.008 L 68.339 351.816 69.214 351.108 C 70.473 350.089,91.269 350.041,94.861 351.049 M337.769 351.166 C 338.425 351.891,338.426 352.048,337.777 354.107 L 337.091 356.283 325.883 356.233 C 315.251 356.186,314.621 356.225,313.637 356.982 C 311.499 358.629,311.560 358.216,311.698 370.262 L 311.827 381.523 310.414 381.757 C 307.735 382.201,306.912 382.059,306.606 381.100 C 305.868 378.787,305.875 352.001,306.614 351.184 C 307.705 349.978,336.679 349.961,337.769 351.166 M126.054 357.787 C 123.012 358.917,123.094 358.832,122.373 361.600 C 121.881 363.488,121.671 381.005,122.135 381.468 C 122.660 381.994,134.882 382.168,159.400 382.000 C 175.460 381.890,199.670 381.890,213.200 382.000 C 226.730 382.110,246.890 382.110,258.000 382.000 L 278.200 381.800 278.046 374.521 C 277.906 367.872,277.962 367.093,278.698 365.521 C 280.458 361.762,280.681 359.337,279.391 357.991 L 278.250 356.800 203.425 356.821 L 128.600 356.842 126.054 357.787 M278.578 358.534 C 279.277 359.046,279.279 359.156,278.622 361.134 L 277.936 363.200 203.657 363.200 C 121.877 363.200,128.346 363.403,126.998 360.796 C 125.468 357.838,120.096 358.033,203.424 358.016 C 264.886 358.003,277.974 358.093,278.578 358.534 M152.800 366.800 C 152.470 367.013,151.390 367.173,150.400 367.154 C 148.908 367.126,148.771 367.065,149.600 366.800 C 151.112 366.316,153.549 366.316,152.800 366.800 M176.200 366.800 C 176.625 367.488,173.318 367.478,172.629 366.789 C 172.377 366.537,172.895 366.400,174.096 366.400 C 175.117 366.400,176.064 366.580,176.200 366.800 M213.053 366.676 C 213.776 366.953,205.592 369.143,203.687 369.181 C 202.473 369.206,198.705 367.277,199.009 366.786 C 199.281 366.346,211.936 366.247,213.053 366.676 M226.600 366.800 C 226.464 367.020,226.014 367.200,225.600 367.200 C 225.186 367.200,224.736 367.020,224.600 366.800 C 224.455 366.566,224.870 366.400,225.600 366.400 C 226.330 366.400,226.745 366.566,226.600 366.800 " stroke="none" fill="#b8b3b4" fill-rule="evenodd"></path><path id="path4" d="M178.200 37.170 C 163.292 37.430,163.984 37.290,160.099 40.829 C 156.910 43.734,154.390 44.583,148.784 44.643 C 143.237 44.702,142.606 44.965,139.484 48.522 L 137.221 51.099 133.311 51.586 C 128.899 52.135,127.446 52.825,125.848 55.131 C 123.569 58.420,122.904 58.795,118.560 59.242 L 114.600 59.650 113.000 61.372 C 112.120 62.320,111.072 63.574,110.672 64.160 C 110.272 64.746,108.947 65.787,107.729 66.475 C 106.444 67.200,105.039 68.411,104.381 69.362 C 102.206 72.502,101.451 73.299,99.536 74.477 C 98.476 75.130,96.841 76.670,95.904 77.901 C 94.967 79.131,93.390 80.702,92.400 81.391 C 91.410 82.079,89.906 83.677,89.058 84.940 C 88.209 86.204,86.565 87.939,85.403 88.798 C 83.213 90.416,82.274 91.458,81.125 93.550 C 80.754 94.225,79.438 95.425,78.202 96.216 C 76.965 97.007,75.469 98.392,74.877 99.294 C 73.868 100.830,72.174 102.605,68.764 105.698 C 67.345 106.984,67.325 107.048,67.068 110.999 C 66.765 115.661,66.389 116.363,63.182 118.246 C 59.589 120.355,59.204 121.099,59.202 125.941 L 59.200 130.082 57.700 131.444 C 56.875 132.192,55.371 133.569,54.358 134.502 L 52.516 136.200 52.271 141.800 C 51.885 150.609,51.452 152.040,48.282 154.973 C 46.838 156.308,45.450 157.820,45.197 158.333 C 44.853 159.031,44.748 187.313,44.783 270.476 L 44.829 381.686 43.794 383.043 C 42.186 385.152,40.943 385.600,36.698 385.600 L 32.957 385.600 31.578 387.021 C 29.756 388.898,29.183 395.339,30.600 398.013 C 31.765 400.211,36.740 405.385,38.600 406.333 L 40.200 407.148 203.498 407.310 L 366.795 407.473 368.203 406.623 C 368.977 406.156,370.248 404.827,371.027 403.671 C 371.806 402.514,373.288 400.959,374.321 400.215 C 377.257 398.101,377.645 397.155,377.339 392.849 C 376.919 386.935,375.507 385.600,369.673 385.600 C 366.212 385.600,363.650 384.351,362.950 382.322 C 362.775 381.815,362.624 332.350,362.616 272.400 C 362.598 148.462,362.969 160.610,359.091 157.001 C 355.705 153.850,355.540 153.342,355.119 144.808 C 354.709 136.485,354.670 136.367,351.599 134.161 C 348.481 131.921,348.000 130.832,348.000 126.015 C 348.000 121.157,347.597 120.352,344.211 118.441 C 341.539 116.933,340.942 116.066,340.001 112.321 C 338.915 108.005,338.653 107.494,336.444 105.403 C 335.189 104.215,334.165 102.792,333.741 101.645 C 332.724 98.903,331.794 97.761,329.415 96.338 C 327.878 95.418,326.837 94.377,325.748 92.667 C 324.722 91.057,323.541 89.841,322.121 88.932 C 320.783 88.076,319.517 86.806,318.649 85.450 C 317.772 84.079,316.449 82.758,314.951 81.758 C 313.669 80.901,312.220 79.570,311.732 78.800 C 310.071 76.178,309.115 75.170,307.016 73.827 C 305.862 73.089,304.503 71.791,303.995 70.943 C 302.557 68.538,301.170 67.217,299.000 66.184 C 297.765 65.597,296.203 64.326,294.918 62.864 L 292.836 60.495 288.772 59.977 C 284.206 59.395,283.263 58.794,281.136 55.109 C 279.572 52.400,278.792 52.041,273.819 51.737 C 269.536 51.475,269.483 51.459,268.248 50.099 C 267.561 49.343,266.171 47.842,265.157 46.763 L 263.314 44.800 259.357 44.795 C 252.083 44.785,248.245 43.687,245.606 40.861 C 242.036 37.039,244.305 37.327,216.200 37.121 C 202.560 37.021,185.460 37.043,178.200 37.170 M241.446 40.193 C 241.921 40.504,242.420 41.382,242.566 42.162 C 243.239 45.749,245.625 46.654,255.400 47.028 C 263.582 47.341,263.802 47.404,264.142 49.525 C 264.725 53.174,267.835 54.643,274.265 54.307 C 278.440 54.088,278.882 54.303,279.404 56.800 C 280.151 60.375,281.353 61.283,286.632 62.262 C 289.755 62.842,290.174 63.033,291.524 64.498 C 292.336 65.378,293.382 66.512,293.849 67.017 C 294.736 67.976,297.043 68.794,298.871 68.798 C 300.167 68.800,301.405 70.236,301.765 72.152 C 302.103 73.955,303.629 75.412,305.736 75.942 C 307.701 76.437,308.615 77.286,309.025 79.000 C 309.728 81.937,310.495 82.641,314.812 84.311 C 315.581 84.609,315.946 85.181,316.335 86.699 C 316.933 89.030,318.314 90.489,320.600 91.204 C 322.798 91.891,323.096 92.199,323.419 94.113 C 323.816 96.465,325.681 98.243,328.135 98.611 C 330.270 98.931,330.574 99.315,330.978 102.200 C 331.512 106.011,333.700 109.800,336.085 111.040 C 337.155 111.597,337.367 112.076,338.409 116.294 C 338.993 118.656,340.231 119.890,342.600 120.470 C 344.929 121.040,346.094 121.873,345.811 122.767 C 345.701 123.115,345.585 125.320,345.553 127.667 C 345.471 133.834,346.223 135.260,350.439 136.936 C 352.178 137.628,352.285 138.125,352.805 148.000 C 352.997 151.630,353.381 155.297,353.659 156.148 C 354.143 157.633,357.943 162.000,358.750 162.000 C 360.389 162.000,360.365 160.147,360.182 274.000 C 360.056 352.918,360.130 382.579,360.455 383.600 C 361.431 386.663,362.897 387.432,368.922 388.043 C 374.629 388.622,374.233 388.317,374.747 392.524 C 375.245 396.607,374.970 397.404,372.934 397.786 C 370.855 398.176,369.347 399.719,368.795 402.023 C 368.484 403.315,367.985 404.253,367.405 404.634 C 366.606 405.157,347.121 405.209,203.537 405.072 C 33.775 404.910,38.800 404.960,38.800 403.430 C 38.800 401.862,36.948 399.446,35.083 398.582 C 33.982 398.072,32.931 397.418,32.747 397.127 C 32.365 396.525,32.367 391.200,32.750 389.400 L 33.006 388.200 38.003 387.970 C 43.637 387.712,45.149 387.187,46.293 385.093 C 46.964 383.867,47.004 378.031,47.078 271.668 C 47.135 188.856,47.274 159.393,47.609 158.990 C 47.858 158.689,48.945 158.150,50.025 157.792 C 53.648 156.588,54.225 154.894,54.618 144.309 C 54.920 136.189,54.847 136.412,57.463 135.665 C 61.124 134.619,62.319 131.867,61.696 125.913 C 61.241 121.566,61.519 121.001,64.440 120.349 C 68.370 119.470,69.241 117.991,69.566 111.640 L 69.800 107.079 71.910 106.393 C 74.707 105.483,75.494 104.693,76.258 102.030 C 77.075 99.177,77.302 98.921,79.313 98.581 C 81.484 98.214,83.435 96.305,83.821 94.172 C 84.195 92.097,84.483 91.793,86.644 91.188 C 88.966 90.538,90.374 89.106,91.171 86.588 C 91.611 85.197,92.091 84.480,92.771 84.200 C 96.840 82.524,96.964 82.399,98.969 78.000 C 99.268 77.343,100.038 76.794,101.212 76.400 C 104.246 75.382,105.252 74.331,105.805 71.600 C 106.165 69.827,107.063 68.800,108.254 68.800 C 111.069 68.800,113.308 66.962,113.821 64.230 C 114.164 62.398,114.652 62.195,119.503 61.862 C 124.849 61.496,127.170 60.210,127.856 57.235 C 128.458 54.629,128.878 54.400,133.063 54.400 C 139.145 54.400,141.964 52.932,142.622 49.423 C 143.049 47.149,143.490 47.002,149.962 46.978 C 159.040 46.943,161.974 45.932,163.612 42.274 C 165.001 39.172,161.906 39.386,203.451 39.516 C 234.513 39.613,240.729 39.723,241.446 40.193 M191.800 56.071 C 182.570 57.002,182.599 56.944,182.926 73.800 C 183.285 92.393,181.867 91.246,204.226 91.024 C 225.848 90.809,224.083 92.257,224.480 74.400 C 224.862 57.183,225.188 57.877,216.000 56.369 C 210.937 55.539,198.587 55.386,191.800 56.071 M218.800 59.171 C 222.349 61.034,222.984 62.866,221.605 67.264 C 220.927 69.429,220.810 70.944,220.805 77.625 L 220.800 85.450 219.700 86.491 L 218.600 87.531 203.503 87.660 L 188.407 87.788 187.345 86.727 C 186.030 85.411,185.803 84.101,185.176 74.158 C 184.376 61.482,185.314 59.022,191.081 58.673 C 197.565 58.281,217.797 58.645,218.800 59.171 M252.600 63.850 C 245.093 64.576,242.130 65.462,241.163 67.270 C 240.907 67.747,240.181 68.572,239.549 69.104 C 238.457 70.023,238.400 70.233,238.397 73.336 C 238.395 75.131,238.140 78.521,237.830 80.869 C 237.208 85.576,237.937 90.932,239.497 93.115 C 239.884 93.657,240.656 94.842,241.214 95.750 C 242.324 97.555,244.173 98.666,246.820 99.118 C 247.754 99.278,248.648 99.676,248.807 100.004 C 248.966 100.332,249.483 101.467,249.956 102.526 C 252.573 108.394,272.508 108.432,275.298 102.574 C 275.710 101.708,276.265 100.558,276.530 100.017 C 276.839 99.385,277.717 98.781,278.986 98.327 C 281.494 97.430,282.842 96.079,283.600 93.704 C 284.036 92.338,284.582 91.582,285.600 90.935 C 293.674 85.803,291.074 79.583,280.398 78.492 L 277.542 78.200 276.800 76.004 C 275.911 73.372,274.640 72.177,272.323 71.792 C 269.699 71.356,268.565 70.594,267.613 68.626 C 266.000 65.294,259.395 63.193,252.600 63.850 M146.800 64.274 C 141.785 64.560,139.955 65.581,139.170 68.529 C 138.409 71.389,138.019 71.599,133.438 71.609 C 127.697 71.621,125.388 72.788,124.207 76.274 C 123.664 77.874,123.079 78.298,119.866 79.418 C 114.334 81.346,114.980 90.116,120.721 91.034 C 122.513 91.320,123.759 92.425,124.147 94.069 C 124.553 95.786,126.303 97.541,128.129 98.062 C 130.388 98.706,131.053 99.352,131.814 101.642 C 132.886 104.868,134.389 105.645,141.000 106.388 C 150.266 107.429,156.487 105.287,157.461 100.720 C 157.777 99.243,158.617 98.603,161.219 97.859 C 165.704 96.577,166.183 95.329,165.843 85.819 C 165.025 62.985,165.233 63.220,146.800 64.274 M257.429 66.663 C 259.464 67.347,263.300 69.591,263.790 70.383 C 264.273 71.165,267.038 72.731,269.165 73.426 C 271.706 74.258,272.846 75.138,274.480 77.530 C 276.144 79.966,276.494 80.215,279.719 81.250 C 285.903 83.236,286.921 84.643,284.250 87.517 C 283.288 88.553,281.852 90.420,281.060 91.666 C 279.573 94.004,278.497 94.928,275.879 96.116 C 275.013 96.510,274.067 97.349,273.679 98.069 C 271.784 101.592,270.802 102.211,266.321 102.709 C 257.792 103.655,254.191 102.730,252.139 99.063 C 251.931 98.690,250.256 97.623,248.417 96.692 C 242.927 93.912,242.636 92.844,243.279 77.824 C 243.692 68.174,244.342 67.291,251.629 66.482 C 253.483 66.276,255.103 66.083,255.229 66.054 C 255.355 66.024,256.345 66.298,257.429 66.663 M157.486 67.254 C 161.419 68.002,161.429 68.034,161.765 81.220 C 162.094 94.112,162.353 93.040,158.400 95.119 C 156.587 96.072,155.983 96.678,154.967 98.560 C 152.711 102.738,153.046 102.607,144.800 102.553 C 136.518 102.499,136.309 102.429,134.531 99.111 C 133.592 97.359,133.011 96.806,131.110 95.855 C 129.670 95.135,128.144 93.919,126.999 92.578 C 125.997 91.405,124.148 89.857,122.890 89.137 C 117.622 86.123,117.628 83.811,122.912 81.143 C 124.254 80.466,126.369 78.942,127.612 77.756 C 129.796 75.672,133.889 74.000,136.804 74.000 C 137.873 74.000,140.619 71.808,141.922 69.913 C 144.124 66.713,149.659 65.767,157.486 67.254 M102.400 101.170 C 96.712 101.482,94.098 103.187,94.019 106.638 C 93.993 107.778,92.903 108.644,91.082 108.971 C 88.606 109.415,87.269 110.951,86.360 114.400 C 85.822 116.442,85.290 117.592,84.694 118.000 C 81.154 120.427,79.766 122.775,79.377 127.000 C 78.919 131.955,78.111 134.419,76.481 135.828 L 75.028 137.084 77.485 139.518 C 80.579 142.583,82.411 143.200,88.424 143.200 C 93.092 143.200,93.187 143.243,93.971 145.675 C 95.966 151.874,110.809 152.108,113.849 145.988 C 114.527 144.623,115.159 143.996,116.407 143.445 C 118.238 142.637,119.392 141.078,120.051 138.525 C 120.576 136.487,121.384 135.712,124.109 134.630 C 130.117 132.245,129.390 116.800,123.270 116.800 C 122.595 116.800,120.400 114.772,120.400 114.149 C 120.400 112.444,118.725 110.357,116.502 109.290 C 114.384 108.274,114.198 108.071,113.754 106.289 C 112.590 101.620,110.594 100.720,102.400 101.170 M298.033 101.460 C 295.798 102.029,294.181 103.744,293.811 105.936 C 293.487 107.850,293.116 108.203,291.028 108.579 C 288.949 108.955,286.954 110.951,286.581 113.028 C 286.208 115.102,285.462 115.885,283.550 116.208 C 279.880 116.828,278.558 119.358,278.932 125.047 C 279.376 131.799,280.511 134.108,283.888 135.119 C 286.179 135.806,286.757 136.683,287.588 140.740 C 289.218 148.699,291.363 149.926,303.839 150.036 C 309.899 150.089,311.435 149.484,312.786 146.513 C 313.265 145.461,313.798 144.330,313.970 144.000 C 314.211 143.538,315.381 143.349,319.042 143.180 C 327.154 142.806,328.278 141.466,328.457 131.955 C 328.574 125.709,327.357 123.490,323.343 122.626 C 322.107 122.360,322.078 122.299,321.634 119.078 C 321.385 117.275,321.081 115.129,320.957 114.309 C 320.609 111.999,319.250 110.331,316.629 109.000 C 314.444 107.891,314.215 107.643,313.594 105.715 C 312.743 103.073,312.323 102.582,310.268 101.834 C 308.165 101.068,300.491 100.834,298.033 101.460 M109.096 104.370 C 110.244 105.202,110.910 106.099,111.398 107.470 C 112.514 110.606,112.862 111.154,114.686 112.649 C 115.642 113.432,116.849 114.911,117.368 115.936 C 118.476 118.120,119.319 118.956,121.215 119.750 C 123.829 120.845,124.323 121.772,124.441 125.800 C 124.569 130.169,124.262 130.829,121.492 132.139 C 118.993 133.321,118.211 134.116,116.831 136.880 C 116.028 138.485,115.325 139.222,113.666 140.196 C 112.269 141.017,111.134 142.090,110.375 143.310 C 107.520 147.897,99.334 148.224,97.130 143.839 C 95.215 140.027,93.974 139.429,89.279 140.054 C 85.077 140.614,84.278 140.457,82.177 138.659 L 80.575 137.288 80.931 133.944 C 81.532 128.303,82.158 126.629,84.593 124.155 C 86.750 121.963,87.088 121.267,88.556 115.989 C 89.205 113.654,90.256 112.412,92.939 110.807 C 93.883 110.242,95.139 108.855,96.189 107.218 C 98.951 102.908,105.180 101.534,109.096 104.370 M309.357 104.816 C 310.118 105.484,311.289 107.002,311.959 108.188 C 312.692 109.488,313.871 110.824,314.927 111.550 C 317.381 113.238,317.971 114.339,318.670 118.530 C 319.406 122.938,319.768 123.571,322.586 125.374 C 326.736 128.029,327.330 135.044,323.710 138.663 L 322.315 140.058 318.458 139.810 C 313.698 139.505,312.166 140.189,310.227 143.485 C 308.382 146.621,308.011 146.797,303.800 146.545 C 296.762 146.122,293.304 143.859,291.049 138.200 C 289.697 134.804,288.833 133.812,286.091 132.504 C 283.304 131.174,282.589 130.057,281.760 125.732 C 280.939 121.450,281.289 120.599,284.737 118.477 C 286.660 117.293,287.653 116.241,289.338 113.601 C 289.829 112.831,291.255 111.524,292.506 110.696 C 293.968 109.729,295.273 108.422,296.156 107.042 C 298.228 103.803,298.671 103.600,303.675 103.600 C 307.892 103.600,307.998 103.623,309.357 104.816 M67.959 155.301 C 64.748 157.428,63.697 162.347,64.000 173.827 C 64.234 182.674,63.802 185.927,62.170 187.631 C 61.131 188.716,61.289 190.400,62.429 190.400 C 62.650 190.400,63.832 192.467,65.056 194.992 C 68.251 201.587,67.752 201.364,79.384 201.384 C 91.835 201.406,92.913 201.232,95.101 198.860 C 96.044 197.837,97.273 196.516,97.832 195.924 C 98.391 195.333,99.711 194.562,100.766 194.211 C 104.713 192.900,105.266 191.562,105.808 182.000 C 106.428 171.081,105.828 169.130,101.494 167.976 C 99.408 167.421,98.522 166.665,98.191 165.157 C 97.418 161.637,92.104 160.013,81.333 160.003 C 76.860 159.999,76.567 159.895,75.582 157.964 C 73.950 154.766,70.556 153.580,67.959 155.301 M334.415 157.038 C 333.213 157.583,331.944 158.289,331.594 158.605 C 330.746 159.372,326.348 159.970,318.761 160.348 C 311.473 160.712,310.361 161.168,309.570 164.120 C 308.705 167.348,308.554 167.533,306.244 168.204 C 301.235 169.661,300.694 171.139,300.871 182.889 C 301.040 194.060,301.041 194.062,307.453 195.607 C 308.709 195.910,309.219 196.281,309.582 197.156 C 311.078 200.768,313.445 201.600,322.229 201.600 C 332.190 201.600,335.540 200.632,339.332 196.660 C 342.432 193.413,342.585 192.957,342.712 186.600 C 342.774 183.520,342.935 177.480,343.071 173.177 C 343.393 162.943,343.170 161.946,339.797 158.523 C 336.960 155.643,337.288 155.734,334.415 157.038 M73.600 161.058 C 75.844 162.011,76.939 162.196,81.600 162.412 C 89.425 162.776,92.102 163.661,94.816 166.780 C 96.141 168.304,97.608 169.489,98.966 170.132 C 103.250 172.160,103.589 173.131,102.396 179.948 C 101.958 182.450,101.600 185.434,101.600 186.579 C 101.600 189.002,100.801 189.992,98.200 190.795 C 97.320 191.067,95.520 191.871,94.200 192.582 C 92.880 193.292,90.671 194.286,89.292 194.789 C 87.912 195.292,86.686 195.861,86.568 196.052 C 86.201 196.645,77.591 196.388,73.800 195.671 L 70.200 194.990 68.300 191.826 L 66.400 188.662 66.404 177.231 C 66.408 165.815,66.409 165.797,67.430 163.600 C 68.569 161.150,69.943 159.478,70.581 159.766 C 70.811 159.870,72.170 160.451,73.600 161.058 M338.943 163.190 C 340.952 165.413,341.044 166.174,340.173 173.400 C 339.749 176.920,339.401 181.973,339.401 184.630 C 339.400 190.510,338.687 191.933,335.320 192.776 C 334.264 193.040,332.590 193.619,331.600 194.062 C 325.756 196.677,317.603 197.167,314.468 195.092 C 312.768 193.968,310.422 193.206,308.647 193.202 C 304.412 193.194,303.200 190.582,303.200 181.467 L 303.200 174.028 304.464 172.588 C 305.159 171.796,306.554 170.728,307.564 170.214 C 309.516 169.220,310.396 168.365,312.108 165.800 C 313.735 163.361,314.325 163.152,320.764 162.735 C 323.974 162.527,328.220 162.212,330.200 162.036 C 337.306 161.403,337.332 161.406,338.943 163.190 M70.200 212.340 C 66.801 212.833,65.501 213.860,64.809 216.600 C 63.653 221.177,63.136 222.253,61.730 223.010 C 59.477 224.223,58.662 225.694,59.006 227.921 C 59.166 228.954,59.427 234.390,59.587 240.000 C 59.899 250.975,60.320 253.411,62.236 255.327 C 62.910 256.001,63.390 257.429,64.100 260.878 C 65.811 269.185,65.386 268.965,79.981 269.127 C 105.665 269.414,105.460 269.641,105.669 240.600 L 105.788 224.200 104.866 222.317 C 104.127 220.806,103.556 220.252,101.980 219.517 C 100.320 218.742,99.947 218.358,99.575 217.037 C 99.013 215.042,97.367 213.397,95.368 212.833 C 93.524 212.313,73.144 211.914,70.200 212.340 M311.000 212.448 C 301.223 213.485,300.664 215.189,300.894 243.200 C 301.121 270.811,299.261 268.670,323.200 268.871 C 340.632 269.017,340.470 269.043,342.134 265.835 C 343.349 263.493,343.722 253.218,343.328 232.929 C 342.961 214.055,343.058 214.626,339.974 213.136 C 338.295 212.324,316.943 211.817,311.000 212.448 M93.520 215.364 C 95.077 216.178,96.626 217.958,97.381 219.800 C 97.742 220.680,98.875 222.253,99.899 223.296 L 101.762 225.192 101.882 240.359 C 102.018 257.495,102.109 256.882,98.794 261.314 C 96.061 264.969,94.310 265.600,86.905 265.600 C 83.635 265.600,78.593 265.790,75.699 266.022 C 69.929 266.485,69.224 266.317,67.801 264.145 C 66.887 262.750,66.012 251.886,66.005 241.850 C 66.002 236.390,65.798 232.714,65.355 230.115 C 64.731 226.455,64.737 226.245,65.532 223.666 C 65.984 222.200,66.551 220.234,66.793 219.297 C 67.051 218.297,67.809 217.018,68.630 216.197 L 70.027 214.800 81.233 214.800 C 90.102 214.800,92.665 214.918,93.520 215.364 M338.983 216.500 L 340.660 218.200 340.104 224.600 C 339.702 229.223,339.592 235.469,339.709 247.092 L 339.871 263.185 338.798 264.470 L 337.725 265.755 322.563 265.653 L 307.400 265.550 306.057 264.225 C 303.529 261.731,303.205 259.093,303.212 241.000 C 303.220 215.331,303.606 214.883,325.753 214.828 L 337.305 214.800 338.983 216.500 M66.849 286.941 C 65.076 287.594,63.700 289.240,63.371 291.102 C 63.201 292.065,62.549 293.180,61.543 294.225 C 58.737 297.143,58.412 298.686,58.795 307.277 C 59.154 315.356,59.297 315.900,61.405 317.203 C 63.046 318.217,63.569 319.136,64.747 323.074 C 66.304 328.277,66.792 328.421,82.400 328.272 C 97.815 328.126,99.947 327.521,103.467 322.292 C 105.512 319.252,105.708 317.771,105.887 303.933 C 106.131 285.070,108.000 286.629,85.000 286.522 C 72.434 286.464,67.859 286.569,66.849 286.941 M303.985 287.300 C 301.019 288.796,300.836 289.800,300.831 304.600 C 300.827 321.691,301.414 324.661,305.220 326.800 L 307.000 327.800 322.600 327.932 L 338.200 328.064 339.578 327.130 C 342.409 325.214,343.074 322.240,343.992 307.400 C 344.762 294.941,343.663 288.779,340.372 287.101 C 337.973 285.877,306.464 286.050,303.985 287.300 M96.600 289.240 C 99.871 289.596,100.318 289.749,101.488 290.916 L 102.776 292.200 102.441 303.651 C 102.076 316.127,101.823 317.376,99.324 319.013 C 98.815 319.347,97.941 320.311,97.382 321.156 C 95.219 324.425,94.145 324.673,81.103 324.920 L 69.606 325.137 68.403 323.677 C 67.741 322.875,67.200 321.748,67.200 321.173 C 67.200 320.598,66.840 318.720,66.400 317.000 C 65.960 315.280,65.591 312.776,65.580 311.436 C 65.570 310.096,65.335 306.952,65.059 304.448 C 64.653 300.766,64.655 299.428,65.070 297.448 C 65.352 296.102,65.587 294.429,65.592 293.731 C 65.602 292.194,67.112 290.275,69.148 289.211 C 70.758 288.371,88.768 288.390,96.600 289.240 M338.899 289.671 C 341.025 291.184,341.336 292.392,340.563 296.122 C 340.053 298.577,339.902 301.106,339.959 306.200 C 340.089 317.667,339.562 322.321,337.974 323.740 L 336.671 324.904 325.035 324.667 C 303.358 324.226,303.481 324.340,303.283 304.475 C 303.110 287.166,301.351 288.516,323.793 288.739 C 336.978 288.870,337.850 288.924,338.899 289.671 M142.674 316.580 C 137.978 318.254,135.691 329.343,139.214 333.355 C 141.471 335.926,138.114 335.800,204.600 335.800 L 265.000 335.800 266.829 334.954 C 269.430 333.750,270.180 332.046,269.874 328.029 C 269.283 320.272,268.227 317.827,264.991 316.718 C 262.269 315.784,145.273 315.652,142.674 316.580 M264.041 319.707 C 268.067 322.443,268.328 330.341,264.470 332.698 L 263.000 333.596 203.854 333.598 C 137.299 333.600,143.065 333.868,140.931 330.679 C 139.743 328.904,140.646 322.833,142.412 320.718 L 143.512 319.400 187.456 319.188 C 258.683 318.845,262.812 318.873,264.041 319.707 M76.200 345.219 C 66.366 345.463,64.499 345.875,63.374 348.050 C 63.047 348.682,62.607 349.200,62.395 349.200 C 59.958 349.200,58.644 359.199,59.539 370.933 C 59.808 374.449,59.817 374.473,61.517 376.059 C 63.006 377.448,63.320 378.051,63.970 380.773 C 65.520 387.262,65.054 387.100,82.600 387.263 C 104.514 387.466,104.446 387.527,105.295 367.000 C 106.057 348.581,106.102 348.963,102.952 347.118 C 100.350 345.594,90.175 344.871,76.200 345.219 M315.000 345.242 C 300.714 346.042,301.049 345.657,300.877 361.466 C 300.659 381.516,301.223 385.348,304.616 386.848 C 307.414 388.086,338.161 387.833,339.871 386.558 C 342.709 384.442,343.084 381.903,343.322 363.200 C 343.511 348.320,343.168 346.858,339.200 345.684 C 337.396 345.150,321.737 344.864,315.000 345.242 M96.362 348.387 C 100.344 349.208,102.885 350.824,102.567 352.334 C 102.490 352.700,102.071 354.530,101.635 356.400 C 101.055 358.892,100.798 361.725,100.675 367.008 C 100.518 373.751,100.442 374.344,99.494 376.214 C 98.937 377.314,98.278 378.966,98.031 379.887 C 97.567 381.609,96.359 382.774,94.152 383.624 C 93.419 383.907,88.740 384.096,81.289 384.142 L 69.579 384.216 68.317 382.914 C 66.882 381.434,66.054 374.632,66.017 364.027 C 66.008 361.292,65.797 357.471,65.549 355.535 C 65.026 351.462,65.264 350.828,68.074 348.792 L 69.720 347.600 81.160 347.605 C 90.910 347.610,93.156 347.725,96.362 348.387 M338.663 348.621 C 341.016 350.416,341.297 351.421,340.522 355.272 C 340.000 357.867,339.839 361.144,339.789 370.147 L 339.725 381.694 338.646 383.047 L 337.566 384.400 325.883 384.425 C 319.457 384.439,312.670 384.602,310.800 384.787 C 306.954 385.169,306.378 384.966,304.572 382.599 L 303.491 381.181 303.289 366.488 L 303.088 351.795 304.187 350.489 C 306.439 347.812,306.969 347.738,324.362 347.659 L 337.324 347.600 338.663 348.621 M183.200 353.200 C 121.725 353.399,121.392 353.404,119.826 354.226 C 116.756 355.836,116.616 356.506,116.483 370.284 C 116.349 384.209,116.459 384.760,119.705 386.495 L 121.400 387.400 200.400 387.276 C 243.850 387.209,279.760 387.061,280.200 386.950 C 282.401 386.390,283.377 385.693,285.068 383.468 L 286.912 381.044 287.112 373.739 L 287.313 366.434 286.108 365.062 C 285.186 364.011,284.838 363.140,284.625 361.345 C 283.600 352.714,283.851 352.806,261.400 352.918 C 252.380 352.963,217.190 353.090,183.200 353.200 M278.799 355.800 C 281.468 357.179,282.052 358.644,281.610 362.841 C 281.392 364.909,281.211 369.959,281.207 374.064 L 281.200 381.529 279.969 382.565 C 278.141 384.103,282.470 384.031,199.532 383.911 L 122.064 383.800 121.080 382.875 C 119.175 381.086,119.196 360.393,121.105 358.284 C 121.996 357.299,123.870 356.539,127.138 355.837 C 131.250 354.954,277.093 354.918,278.799 355.800 " stroke="none" fill="#5c646c" fill-rule="evenodd"></path></g></svg>